<svg xmlns="http://www.w3.org/2000/svg" width="631.56" height="169.78" viewBox="0 0 631.56 169.78">
  <defs>
    <style>
      .cls-1 {
        fill: #0af;
      }

      .cls-1, .cls-3 {
        stroke: #fff;
        stroke-width: 3px;
      }

      .cls-1, .cls-2, .cls-3 {
        stroke-miterlimit: 10;
      }

      .cls-2 {
        fill: #fff;
        stroke: #ff4d5e;
      }

      .cls-3 {
        fill: #ff4d5e;
      }
    </style>
  </defs>
  <title>character--01-title</title>
  <g id="レイヤー_2" data-name="レイヤー 2">
    <g id="レイヤー_2-2" data-name="レイヤー 2">
      <g>
        <path class="cls-1" d="M45.29,72.55H9.16V50.13H44.4c5,0,8.15-2.91,8.15-9.92,0-7.58-3.79-9.6-8.15-9.6H1.58V5H25.05V8.52H45.29c20.4,0,31,11.37,31,31.85C76.26,62.22,63,72.55,45.29,72.55Z"/>
        <path class="cls-1" d="M151.5,58.92V28.27c0-3.38-1.05-5.16-3.14-5.16h-.73c1.21,3.79,1.61,8.47,1.61,14V55.85c0,10.73-3.87,17.83-16.37,17.83H122.79V51h2.9c1.78,0,2.67-.64,2.67-2.9V37.22c0-1.85-1-2.33-2.34-2.33H121.9l-2.5,38.79H97.71l2.5-38.79h-5.4V11.26h6.93l.57-8.95H124l-.56,9h2.09c10.08,0,16.05,2.26,19.44,6.69V3.68h4.19c14.36,0,21,9,21,21.69V58.92Z"/>
        <path class="cls-1" d="M258.76,47.22v4.52c0,11.69-6.61,22.18-22.34,22.18H228.6V52.63h4.19c3.47,0,4.68-1.7,4.76-5.41H227.39v6c0,13.63-6.37,20.57-19.68,20.57-13.06,0-21-6.86-21-20.49V46.82c0-13.06,6.53-19.68,18.79-20.32V23.11H191.83V2.31h35.56V26.42h10.16V6.74h21.21V26.42h3.31v20.8Zm-50.4-.8c-3.31.08-5.24.8-5.24,3.14v1.62c0,1.21.4,2.42,2.34,2.42,2.25,0,2.9-1.29,2.9-2.42Z"/>
        <path class="cls-1" d="M334.25,70.21V60.45c0-1.77-.49-2.82-2.26-3,0,10.56-4.11,16.69-16.69,16.69h-19c-12,0-16.69-7.34-16.69-17.18,0-10.56,6.94-15.8,18.15-15.8h13.46V38.52H282.8V22.87h28.38V20H282.8V4.16h28.38V1.5h22.66V4.16H351.1V20H333.84v2.9H351.1V38.52H333.84v2.66h1.94c12.5,0,19,7,19,18.3V70.21ZM311.18,53.68H300.54a1.68,1.68,0,0,0-1.78,1.77,1.61,1.61,0,0,0,1.78,1.61h8.71c1.53,0,1.93-.48,1.93-1.53Z"/>
        <path class="cls-1" d="M437.07,24.4V74.72H413.61V71H397.32c-15.57,0-22-10.48-22-22.09s6.45-21.13,22-21.13h16.29V24.4H373.45V3.92h40.16v-2h23.46v2h10.41V24.4ZM413.61,44.89H399.25c-2.26,0-3.14.88-3.14,2.42s1.13,2.5,3.14,2.5h14.36Z"/>
        <path class="cls-1" d="M519.58,73.92h-9V52.63h4.68a2.26,2.26,0,0,0,2.42-2.5A2.1,2.1,0,0,0,515.3,48h-7.74V58.11c0,8-3.87,15.81-16.61,15.81h-6.21c-12.42,0-18.39-7.91-18.39-22.42,0-13.63,8.31-21.53,18.15-22.5V26.34H466.11V5.53H484.5V2.06h23.06V28.84h10.56c.73,0,1.38.08,2,.08v-.24c0-2.91-2-4.36-5.16-4.36h-4.27V4.4h5.16c17.9,0,23.62,5.57,23.62,22V30H526c8.63,2.74,13.87,10.24,13.87,21.53C539.82,65.53,532.32,73.92,519.58,73.92ZM490,48h-3.06c-2.59,0-3.39,1.45-3.39,2.9,0,2.34,1.69,2.91,3.47,2.91a2.74,2.74,0,0,0,3-3.07Z"/>
        <path class="cls-2" d="M591.84,74h-3.23V60.72c-1.55,10-7.17,13.24-14.8,13.24-8.85,0-16.25-5.67-16.25-18V45.42c0-14.3,9.69-21.15,20.82-21.15h8.68c13,0,21.25,8.85,21.25,21v9.13C608.31,66.9,602.14,74,591.84,74ZM576.37,41.3c-2.73.5-4.28,2.17-4.28,5.23v7.85c0,2.06.94,2.5,2,2.5a2.23,2.23,0,0,0,2.28-2.5Zm16.81,5.4c0-2.79-.89-4.73-4.12-5.4V56.44h.72c2.12,0,3.4-.84,3.4-3.68Z"/>
        <path class="cls-3" d="M65.37,163.36H62v4.51H41.18V135.05H1.5V116.5H5.21c-.16-1-.24-2-.4-3.06H2.87v-18h9.6V92.8H31.74v2.66h8.15v18H38.11l-.48,3.06h3.55V93.28H75.85V112a70.49,70.49,0,0,1-1.53,12.9C76,129,77,135.78,77,142,77,159.81,73.43,163.36,65.37,163.36ZM2.71,167.55v-31h37v31ZM23,150.38H19.64v3.22H23Zm-2.9-36.94c.16,1,.32,2.1.48,3.06h2.34l.4-3.06Zm39.83,15.73a105.38,105.38,0,0,0,1.54-14.44H59.24v26.69h1c1,0,1.21-.64,1.21-1.45C61.42,134,60.85,132.39,59.88,129.17Z"/>
        <path class="cls-3" d="M134.48,160.46v6c-6.45,1.54-26,1.78-40.32,1.78V151.75c1.21,0,2.34.08,3.47.08v-5.89H94.16V129.17h2.5V93.68h71v15.89H119.57v1.37h45.56v7.82H119.57v1.29h45.56v7.83H119.57v1.29h49.75v16.77H142.47a16.22,16.22,0,0,0,6.85,3.06l1.13-2.25h15.73L165,149.33c2.09.08,4,.08,4.35.08v18.87C152.87,168.28,142,165.29,134.48,160.46Zm-12.09-14.52h-2v6.21a45.07,45.07,0,0,0,5.24-.48A44.12,44.12,0,0,1,122.39,145.94Z"/>
        <path class="cls-3" d="M250.29,145.54C241.5,160.86,232.23,166,211.91,166H191.83V95.54h22.74v46H216c8.63,0,12.74-3.3,18-11.93,7.1-11.77,15-16.13,27.66-16.77v24.75C256,138.2,252.87,141,250.29,145.54Z"/>
        <path class="cls-3" d="M321.43,156.75c-10,5.88-23.39,9.83-41.21,9.83v-23.7c31.85,0,40.8-15.73,40.8-22.34v-1.7H282.8V97.39h63.06v17.74a48,48,0,0,1-7.1,24.68,41.88,41.88,0,0,0,15.81,2.58v23.47C336.42,165.86,330.54,163,321.43,156.75Z"/>
        <path class="cls-3" d="M430.06,156.18l1.21,9.44H407.64l-1.13-9.44H373v-22.1h30.65l-1.45-11.45H373.12V100.3h26.21l-.64-5.09h23.38l.73,5.09H446v22.33H425.7l1.45,11.45h19.12v22.1Z"/>
        <path class="cls-3" d="M472.72,165.94V147.47H507.8V132.15c0-1.53-.88-2.74-3-2.74H476V110.94h28.79c19.68,0,22.58,3.06,22.58,20.81v15.72h5.4v18.47Z"/>
        <path class="cls-3" d="M561,142V118h69.11v24Z"/>
      </g>
    </g>
  </g>
</svg>
