<svg xmlns="http://www.w3.org/2000/svg" width="634.54" height="167.76" viewBox="0 0 634.54 167.76">
  <defs>
    <style>
      .cls-1 {
        fill: #0af;
      }

      .cls-1, .cls-3 {
        stroke: #fff;
        stroke-width: 3px;
      }

      .cls-1, .cls-2, .cls-3 {
        stroke-miterlimit: 10;
      }

      .cls-2 {
        fill: #fff;
        stroke: #ff4d5e;
      }

      .cls-3 {
        fill: #ff4d5e;
      }
    </style>
  </defs>
  <title>character--00-title</title>
  <g id="レイヤー_2" data-name="レイヤー 2">
    <g id="レイヤー_2-2" data-name="レイヤー 2">
      <g>
        <path class="cls-1" d="M58.51,62.47l1.21,9.43H36.1L35,62.47H1.5V40.37H32.14L30.69,28.92H1.58V6.58H27.79L27.14,1.5H50.53l.73,5.08H74.48V28.92H54.16l1.45,11.45H74.72v22.1Z"/>
        <path class="cls-1" d="M136.34,63.51H129V45h7.34c5.73,0,6.77-1.37,6.77-5.73V37.63H125.69l1.13,34.92H108.6l-1.29-34.92h-6.13V19.48h5.48l-.08-4.19h18.31l.16,4.19h36.69V34.24C161.74,55.61,156.18,63.51,136.34,63.51Z"/>
        <path class="cls-1" d="M225.86,72.3H193V50.21h35.32c5.81,0,7.58-1.45,7.58-4.28V44.48H186.75V25.29H260.7V42.06C260.7,59.16,253.2,72.3,225.86,72.3ZM188,22.23V2.87h71.12V22.23Z"/>
        <path class="cls-1" d="M304.81,72.55H283.93V49.48h21c20.73,0,24.76-7.82,24.76-17.17V25.69H308.36c-4.27,6.45-12.9,15-27.58,15V16.74c6.21,0,11.45-5.89,11.45-11.93V3h61.13V32.31C353.36,53,345.05,72.55,304.81,72.55Z"/>
        <path class="cls-1" d="M435.78,54.56c-6.37,10.49-18.95,18.23-42.33,18.23h-17.1V50.05h17.34c8.3,0,14.11-.57,18.06-2.74-5.24-.33-11-.49-15.32-.49V29.89c6.77,0,15.48.4,22.42,1.13V25.69H397.72a30.78,30.78,0,0,1-24.19,16.78V15.77c4.35,0,8.14-4.67,8.14-10.56V3.36h59.92V33.68c2.1.4,4,.8,4.92,1V57.06C444.33,56.58,440.46,55.69,435.78,54.56Z"/>
        <path class="cls-1" d="M467.64,48.27v-24h69.11v24Z"/>
        <path class="cls-2" d="M591.28,73h-3.23V59.75c-1.56,10-7.18,13.25-14.8,13.25C564.4,73,557,67.32,557,55V44.45c0-14.3,9.68-21.15,20.81-21.15h8.68c13,0,21.26,8.85,21.26,21v9.13C607.75,65.93,601.57,73,591.28,73ZM575.81,40.33c-2.73.5-4.29,2.17-4.29,5.23v7.85c0,2.06,1,2.5,2,2.5a2.23,2.23,0,0,0,2.28-2.5Zm16.8,5.4c0-2.78-.89-4.73-4.12-5.4V55.47h.73c2.11,0,3.39-.84,3.39-3.68Z"/>
        <path class="cls-3" d="M72.06,128.92c-2.58,20.65-11.77,36-48.22,36H2.14V143.12h19c19.83,0,25.56-5.49,28.06-19.68,3.47-19.6,12-26.53,26.37-27v25.81C73.19,122.79,72.71,124,72.06,128.92ZM3.11,115.38V96.18H36.26v19.2Zm0,22.17V118.44H36.26v19.11Z"/>
        <path class="cls-3" d="M96.66,141V117h69.11v24Z"/>
        <path class="cls-3" d="M257.39,126.91c-3.63,26.69-18.79,38-48,38H187.15V142.15h19.43c21.13,0,25.17-6.29,27.26-16.94,3.87-19.27,8.55-26.69,27.1-28.87v25.89C258.52,122.88,257.71,124.57,257.39,126.91Zm-70-7.1V97.31h33.39v22.5Z"/>
        <path class="cls-3" d="M343,147.31c-6.37,10.48-19,18.23-42.34,18.23H283.6V142.79h17.34c8.31,0,14.11-.56,18.07-2.74-5.25-.32-11-.48-15.33-.48V122.63c6.78,0,15.49.41,22.42,1.13v-5.32H305a30.72,30.72,0,0,1-24.19,16.77V108.52c4.36,0,8.15-4.68,8.15-10.56V96.1h59.91v30.32c2.1.41,4,.81,4.92,1v22.42C351.59,149.33,347.71,148.44,343,147.31Z"/>
        <path class="cls-3" d="M440.22,118c-7.26,0-11,1.21-14,2.66v45.56H402.72v-32.5l-2.9,1.62c-4.2,2.33-11.45,4.67-23.55,4.67h-4.36V116.42h5.33c6.61,0,8.54-1.13,13.46-3.71l26.94-14.19c5.64-3,10-4.11,17.9-4.11h11.77V118Z"/>
        <path class="cls-3" d="M525.14,144.89c-12.58,0-23-1.37-31.13-4.19v24.35H469.25v-71H494v16.77c0,7.66,12.58,10.32,31.13,10.32h10.08v23.71Z"/>
        <path class="cls-3" d="M557.56,165.05V140c3.23-.8,4.36-2.34,4.36-10.08v-35h20.8v32.9C582.72,154.49,575.47,163.6,557.56,165.05Zm54.19-42.82v.16c0,15.16-3,18.07-4,18.07h-1l.4-4.12V94.89H586v70.16H606c19,0,27-13.71,27-42.82Zm21.29-.16v0Z"/>
      </g>
    </g>
  </g>
</svg>
