<svg xmlns="http://www.w3.org/2000/svg" viewBox="0 0 262.7 389.34"><defs><style>.cls-1{fill:#333;}.cls-10,.cls-2,.cls-6,.cls-7{fill:none;}.cls-10,.cls-2,.cls-3,.cls-4,.cls-9{stroke:#000;}.cls-10,.cls-11,.cls-2,.cls-3,.cls-4,.cls-6,.cls-7,.cls-9{stroke-miterlimit:10;}.cls-3,.cls-5{fill:#ffeacf;}.cls-4{fill:#c1272d;}.cls-11,.cls-6{stroke:#1a1a1a;}.cls-7{stroke:#f15a24;stroke-width:3px;}.cls-11,.cls-8{fill:#fff;}.cls-12,.cls-9{fill:#ff0;}.cls-10{stroke-width:5px;}.cls-11{stroke-width:0.25px;}</style></defs><title>アセット 5</title><g id="レイヤー_2" data-name="レイヤー 2"><g id="レイヤー_1-2" data-name="レイヤー 1"><path class="cls-1" d="M254.31,133.46c.82,22.66,1.55,70-5.56,88.12,0,0,2.44,35.68,11,44.7-.49-.3-16-10-16-13.49,0,0-1.83,12.17-.5,14.17,0,0-21.33-5-20.67-8.92,0,0-1.61,10.77-2.28,12.1L77.82,275.68c-.38.63-1.9-1.72-1.9-1.72-6,5.66-14.63,4.66-14.63,4.66,14.72-19,9-55.33,9-55.33C16.75,159.54,52.25,67,52.25,67s18.09-55.56,81.9-65c0,0,44.51-9.47,79.06,20.19s42.55,57.11,41,93.88Z"/><line class="cls-2" x1="259.75" y1="266.29" x2="259.74" y2="266.28"/><path class="cls-2" d="M259.74,266.28c-.49-.3-16-10-16-13.49,0,0-1.83,12.17-.5,14.17,0,0-21.33-5-20.67-8.92,0,0-1.61,10.77-2.28,12.1L77.82,275.68c-.38.63-1.9-1.72-1.9-1.72-6,5.66-14.63,4.66-14.63,4.66,14.72-19,9-55.33,9-55.33C16.75,159.54,52.25,67,52.25,67s18.09-55.56,81.9-65c0,0,44.51-9.47,79.06,20.19s42.55,57.11,41,93.88l.05,17.45c.82,22.66,1.55,70-5.56,88.12C248.75,221.58,251.19,257.26,259.74,266.28Z"/><path class="cls-3" d="M119.84,274.63,85.24,388.75H58.84l7-28.32S94,260.23,104,253.59s47.08-28.88,47.08-28.88"/><path class="cls-3" d="M187.09,275l35.72,113.82,26.53-.22-7.25-28.27s-29.19-100-39.25-106.51-47.54-28.48-47.54-28.48"/><path class="cls-4" d="M131.09,234.84s-37,70.92-35.26,92.28c.12,1.58.25,3.18.39,4.78L78.75,388.79h154L210.18,331.9c.13-1.32.26-2.63.38-3.95,2.08-22.22-34.07-95-34.07-95"/><path class="cls-3" d="M177.83,226.15s-2.42,11.14,0,14.14-20.25,21-20.25,21S129.74,253,130.16,251a56.48,56.48,0,0,0,.42-7.33c3-4.67-1.82-16.17-1.82-16.17"/><path class="cls-5" d="M208.13,75S220,154.57,215.68,203c0,0-31.26,23.49-61.93,32,0,0-58.17-15.17-60-23,0,0-12.14-57.74,6.71-114l.3-.89c.28.82,12.69,37.71,15.66,37.88,0,0-3.41-10.39-3.18-16.75,2,6.35,4.44,12.11,7.63,16.21l1.76,1.75s8.5-13.92,74.24-1.21C196.87,135,210.5,116,208.13,75Z"/><path class="cls-6" d="M100.76,97.08c.28.82,12.69,37.71,15.66,37.88,0,0-3.41-10.39-3.18-16.75,0-.09,0-.17,0-.25"/><path class="cls-6" d="M106.5,75s.92,24.17,6.74,43.17c2,6.35,4.44,12.11,7.63,16.21l1.76,1.75s8.5-13.92,74.24-1.21c0,0,13.63-18.92,11.26-59.92,0,0,11.9,79.53,7.55,127.93A122,122,0,0,1,213,220.42s8.75-12.3,11.58-37.63"/><path class="cls-6" d="M215.68,203s-31.26,23.49-61.93,32c0,0-58.17-15.17-60-23,0,0-12.14-57.74,6.71-114l.3-.89h0l.16-.45"/><ellipse class="cls-7" cx="108.5" cy="181.41" rx="4.88" ry="1"/><ellipse class="cls-7" cx="195.25" cy="180.41" rx="4.88" ry="1"/><path class="cls-6" d="M94.75,212s.5,22.34,8.25,41.09c0,0-25.25-39.92-19.75-72.92"/><circle class="cls-8" cx="133.25" cy="93.29" r="8"/><circle class="cls-8" cx="72.75" cy="81.79" r="6"/><circle class="cls-8" cx="150.75" cy="97.29" r="3"/><circle class="cls-8" cx="230.25" cy="73.29" r="3"/><path class="cls-2" d="M122.75,146.79s-5-5-9,0"/><path class="cls-2" d="M187.75,146.79s-5-5-9,0"/><path class="cls-9" d="M34.61,44.63A11.31,11.31,0,0,1,43,36.27a12.92,12.92,0,0,1-8-8,12.15,12.15,0,0,1-8.35,8.35,12.89,12.89,0,0,1,8,8Z"/><path class="cls-9" d="M15.37,89.51A19.55,19.55,0,0,1,21,79.82a19.34,19.34,0,0,1,8.64-4.62A22.21,22.21,0,0,1,16,61.48a21.08,21.08,0,0,1-5.67,9.35,21,21,0,0,1-8.65,5,22.27,22.27,0,0,1,9.1,6A22.28,22.28,0,0,1,15.37,89.51Z"/><path class="cls-10" d="M170.5,170.42s11.75-7.88,30.13-1.13"/><path class="cls-10" d="M129.63,171.42s-11.75-7.88-30.13-1.13"/><path class="cls-2" d="M168.25,198.29a24.65,24.65,0,0,1-31,1"/><path class="cls-11" d="M109.25,75.79a11.49,11.49,0,0,0-7.75-10.86,11.49,11.49,0,0,0-21.63-2.58,10.37,10.37,0,0,0-1.12-.06,11.5,11.5,0,0,0-1.24,22.93,11.49,11.49,0,0,0,21.87,1.94A11.5,11.5,0,0,0,109.25,75.79Z"/><circle class="cls-12" cx="87.75" cy="75.79" r="8.5"/><path class="cls-11" d="M85.25,65.79A11.49,11.49,0,0,0,77.5,54.93a11.49,11.49,0,0,0-21.63-2.58,10.37,10.37,0,0,0-1.12-.06,11.5,11.5,0,0,0-1.24,22.93,11.49,11.49,0,0,0,21.87,1.94A11.5,11.5,0,0,0,85.25,65.79Z"/><path class="cls-11" d="M149.25,93.79a11.49,11.49,0,0,0-7.75-10.86,11.49,11.49,0,0,0-21.63-2.58,10.37,10.37,0,0,0-1.12-.06,11.5,11.5,0,0,0-1.24,22.93,11.49,11.49,0,0,0,21.87,1.94A11.5,11.5,0,0,0,149.25,93.79Z"/><path class="cls-11" d="M125.25,92.79a11.49,11.49,0,0,0-7.75-10.86,11.49,11.49,0,0,0-21.63-2.58,10.37,10.37,0,0,0-1.12-.06,11.5,11.5,0,0,0-1.24,22.93,11.49,11.49,0,0,0,21.87,1.94A11.5,11.5,0,0,0,125.25,92.79Z"/><path class="cls-11" d="M201.25,97.79a11.49,11.49,0,0,0-7.75-10.86,11.49,11.49,0,0,0-21.63-2.58,10.37,10.37,0,0,0-1.12-.06,11.5,11.5,0,0,0-1.24,22.93,11.49,11.49,0,0,0,21.87,1.94A11.5,11.5,0,0,0,201.25,97.79Z"/><circle class="cls-12" cx="180.75" cy="98.79" r="8.5"/><path class="cls-11" d="M178.25,91.79a11.49,11.49,0,0,0-7.75-10.86,11.49,11.49,0,0,0-21.63-2.58,10.37,10.37,0,0,0-1.12-.06,11.5,11.5,0,0,0-1.24,22.93,11.49,11.49,0,0,0,21.87,1.94A11.5,11.5,0,0,0,178.25,91.79Z"/><path class="cls-11" d="M217.24,86.94A11.49,11.49,0,0,0,209.57,76,11.48,11.48,0,0,0,188,73.29a10.55,10.55,0,0,0-1.13-.07,11.5,11.5,0,0,0-1.4,22.92,11.49,11.49,0,0,0,21.85,2.1A11.5,11.5,0,0,0,217.24,86.94Z"/><circle class="cls-12" cx="197.75" cy="86.79" r="8.5"/><path class="cls-11" d="M244.25,83.79a11.49,11.49,0,0,0-7.75-10.86,11.49,11.49,0,0,0-21.63-2.58,10.37,10.37,0,0,0-1.12-.06,11.5,11.5,0,0,0-1.24,22.93,11.49,11.49,0,0,0,21.87,1.94A11.5,11.5,0,0,0,244.25,83.79Z"/><circle class="cls-12" cx="222.75" cy="82.79" r="8.5"/><path class="cls-11" d="M257.25,62.79a11.49,11.49,0,0,0-7.75-10.86,11.49,11.49,0,0,0-21.63-2.58,10.37,10.37,0,0,0-1.12-.06,11.5,11.5,0,0,0-1.24,22.93,11.49,11.49,0,0,0,21.87,1.94A11.5,11.5,0,0,0,257.25,62.79Z"/><circle class="cls-12" cx="63.75" cy="64.79" r="8.5"/><circle class="cls-12" cx="105.75" cy="91.79" r="8.5"/><circle class="cls-12" cx="157.75" cy="90.79" r="8.5"/><circle class="cls-12" cx="237.75" cy="61.79" r="8.5"/></g></g></svg>