<svg xmlns="http://www.w3.org/2000/svg" xmlns:xlink="http://www.w3.org/1999/xlink" width="375.01" height="492.65" viewBox="0 0 375.01 492.65"><defs><style>.cls-1,.cls-12,.cls-16,.cls-6{fill:none;}.cls-2{fill:#fff;}.cls-15,.cls-16,.cls-17,.cls-2,.cls-3,.cls-4,.cls-5,.cls-6,.cls-7,.cls-8{stroke:#000;}.cls-12,.cls-15,.cls-16,.cls-17,.cls-2,.cls-3,.cls-4,.cls-5,.cls-6,.cls-7,.cls-8{stroke-miterlimit:10;}.cls-15,.cls-16,.cls-17,.cls-2,.cls-3,.cls-4,.cls-8{stroke-width:3px;}.cls-3{fill:#123177;}.cls-4{fill:#ffe0b3;}.cls-5{fill:#b22200;}.cls-12,.cls-5,.cls-6{stroke-width:2px;}.cls-7{stroke-width:0.5px;}.cls-8{fill:#444;}.cls-9{clip-path:url(#clip-path);}.cls-10{fill:#4a4134;}.cls-11{fill:#95f96b;}.cls-12{stroke:#282828;}.cls-13{fill:#605443;}.cls-14{fill:#ededed;}.cls-15{fill:#e5e5e5;}.cls-17{fill:#afafaf;}</style><clipPath id="clip-path"><rect class="cls-1" x="54.92" y="337.56" width="273.85" height="93.88"/></clipPath></defs><title>world0_0result</title><g id="レイヤー_2" data-name="レイヤー 2"><g id="一枚絵1"><path class="cls-2" d="M69,431.63H373.41c-1.26-19.42-2.71-39.27-4.35-60-2.95-37.39-22.69-79.71-47.13-98.33-21.32-16.24-63.12-33-110.06-49.17l-39.24-5.25c-30.38,13-82.63,31.77-111.56,47.72-6.79,3.74-13.69,7.69-18.66,13.65-6,7.24-22.55,40-24.95,49.08C9.73,358.78,4.7,394.06,1.63,431.63H69Z"/><path class="cls-3" d="M209.48,431.63c-4.61-67.67-11.34-153.35-18.9-246.12-8.19,88.13-14.8,170.92-19.18,246.12Z"/><polygon class="cls-3" points="169.27 253.35 211.87 253.35 206.66 268.56 203.5 277.79 177.64 277.79 174.48 268.56 169.27 253.35"/><path class="cls-2" d="M244.6,236.44c2.36,13.13,2.78,32.53.11,47.61-5-7.85-38-28.69-50-34.84Z"/><path class="cls-2" d="M133.27,238.61a322.94,322.94,0,0,0,9.93,45.44c7-10.35,27.53-28.84,38.07-32.49.25-.08-8.36-31.79-8.12-31.86Z"/><path class="cls-4" d="M121,180.33c6.26,28.12-1.49,39.75,19.79,53.81,6.23,4.12,39.42,17,46.5,17.7,4.9.5,37.39-5,42.2-6.15,27.78-6.71,27.8-20.29,37.15-52,1.77-6,2.16-6.48,2.89-11.23l.53-.07c1.82-.83,5.73-2.44,7.22-3.85a8.79,8.79,0,0,0,1.38-1.83c.3-.49.57-.94.82-1.45a22.25,22.25,0,0,1,1.45-2.14,19.86,19.86,0,0,0,1.5-3.24,12.8,12.8,0,0,0,1.1-3.39c.17-1.82.72-3.57.93-5.4a35.51,35.51,0,0,0,.3-4.37c0-4.29.34-8.69,0-12.95-.09-1.05-.36-2.09-.4-3.15a11.93,11.93,0,0,0,0-1.89,5.65,5.65,0,0,0-.58-1.33,25,25,0,0,1-.73-2.76,8.39,8.39,0,0,0-2.09-3.37,4.25,4.25,0,0,0-2.25-.22,8.12,8.12,0,0,0-6.49,3.24l1.13-16.58a133,133,0,0,0,1.78-16.58c.92-15.85-6.25-32.7-11-39.41-14.9-21-35.27-29.3-47.59-30.82-15.22-1.88-42.16-3.65-65,11.56-21.57,12.77-30.1,47.44-30.1,47.44s-1.45,9.55-.61,16.82c.91,12.07.91,10.24.82,20.67l-1-.44c-.49-1-2.26.11-3,.4a13.35,13.35,0,0,0-3.78,2.1,13.85,13.85,0,0,0-1.57,2.16c-1.68,2.14-1.83,4.46-1.83,7.06v13.47a38.91,38.91,0,0,0,1.3,8.6c.37,1.67,1.24,3.12,1.65,4.79.14.55.21,1.11.33,1.66a12.88,12.88,0,0,0,.7,1.6c.56,1.65,4.38,4.32,6.21,5.77Z"/><path class="cls-5" d="M169.9,207.52c2.38-1.46,5.86-1.24,8.5-1.26,4.06,0,8.12,0,12.19,0h18.3c1.57,0,5.91-.73,7.26.27,1.09.81.69,3.33.62,4.58a20.67,20.67,0,0,1-1.93,6.2c-.84,1.9-2.39,3.26-3.5,5a7.48,7.48,0,0,1-1.58,2.09c-.61.49-1.6.82-2.29,1.32a20.14,20.14,0,0,1-3,1.86,19.62,19.62,0,0,1-5.46,1.23,66,66,0,0,1-7.57,0,20.57,20.57,0,0,1-7.91-1.18,18.15,18.15,0,0,1-5.07-3.63,37.63,37.63,0,0,1-4.84-5.75,21.73,21.73,0,0,1-2-2.67c-.5-.89-1.49-1.61-1.72-2.56C169.56,211.84,169.9,209.91,169.9,207.52Z"/><path class="cls-6" d="M166.42,184.36c-5.43,2.38-10.95,4.82-15.42,8.81s-7.81,9.88-7.41,16"/><path class="cls-6" d="M218.53,182.93c6,4.1,12.14,8.29,16.61,13.63s7.11,12.14,5.15,17.94"/><path class="cls-6" d="M186.41,153.67a18.33,18.33,0,0,1,.43,7.17c-.5,2.36-2.22,4.62-4.52,4.86-1.27.14-2.6-.33-3.81.09-2.28.79-2.62,4-2.56,6.46a4.42,4.42,0,0,0,.46,2.22,3.36,3.36,0,0,0,1.57,1.21,9.67,9.67,0,0,0,6.88.37,5.59,5.59,0,0,1,2.75-.53c1.15.23,1.94,1.34,3,1.77,3,1.16,5.9-3.06,9-2.2a8.25,8.25,0,0,1,2.35,1.42,10.8,10.8,0,0,0,6.46,2,2.38,2.38,0,0,0,1.73-.59,2.91,2.91,0,0,0,.54-1.95c.1-3.11-.13-6.87-2.74-8.36-1.79-1-4.07-.54-5.93-1.41-3.1-1.45-3.62-5.75-3.7-9.3"/><path class="cls-6" d="M210.37,143.35c.19-2.7,9.26-2.46,10.75-2.45,3.76,0,7.8-.37,11.55.11a16.81,16.81,0,0,1,5.44,1.73,66.07,66.07,0,0,1,6.21,3.25"/><path class="cls-7" d="M221.56,108.12a42.46,42.46,0,0,1,22.8-3,9.1,9.1,0,0,1,3.75,1.21c3,2,3.15,6.37,4.73,9.66a78.13,78.13,0,0,0-36.07-2.26,6.45,6.45,0,0,1-2.76.1c-3.41-.91-.63-2.25.85-2.79C217.15,110.23,219.31,109.08,221.56,108.12Z"/><path class="cls-6" d="M141,142.74c.32-1.26,4.23-1.51,5.15-1.67,2-.35,4.08-.64,6.07-1.07,2.93-.63,6.14-.28,9.16-.3a33.87,33.87,0,0,1,9.41,1.35c1.06.3,2,.35,3,.61s2,.9,3,1.08"/><path class="cls-7" d="M168.6,107.86a42.3,42.3,0,0,0-22.81-3,8.78,8.78,0,0,0-3.74,1.21c-3,2-3.15,6.36-4.73,9.66a78,78,0,0,1,36.07-2.26,6.4,6.4,0,0,0,2.75.09c3.42-.9.64-2.25-.84-2.79C173,110,170.84,108.82,168.6,107.86Z"/><path class="cls-8" d="M111.88,129.45c4.11-10.72,5.49-17.17,7.23-27.11,1.68-9.55,3.66-22.62,10.52-31.28a157,157,0,0,1-.16,35.93,80.71,80.71,0,0,1,28.26-51.26l3.32,15.84,23.61-18.65,8.56,16.81c5-.64,20.6-10.74,24.23-14.29,2.89,2.88,13.05,18.61,15.94,21.5,6.91-3.91,13.28-14,20.19-17.92C267,72.94,259.23,91.52,264,110.25a43.2,43.2,0,0,0,11.89-11.33A172.68,172.68,0,0,1,279.32,118a55.09,55.09,0,0,1,2.6,18.08c15.17-16.6,11.71-37.29,11.08-59.78-.32-11.24-9.17-26.83-15.46-36.15C268.4,26.59,243.35,7.85,227.39,4.38c-32.33-7-67.69-2-95.29,24C121.68,38.22,120.47,41.28,114.57,54c-4.31,9.26-7,32.85-6.92,40C107.76,102.79,114.78,121.9,111.88,129.45Z"/><line class="cls-2" x1="84" y1="371.06" x2="79.56" y2="431.63"/><line class="cls-2" x1="291.09" y1="371.06" x2="295.53" y2="431.63"/><g class="cls-9"><path class="cls-10" d="M228.68,412.6c-.94,8.42,3.56,15.21,2.24,23.59-1,6.17-.36,9.8-2.24,15.74-2.36,7.42,1.63,11.2,1.74,16.32.19,8.84-.9,16.67-14.34,20.14-8.61,2.22-39.57,8.05-59.34-4.8-8.4-6.36-3.91-16.85-3.3-22.34.94-8.4-5.35-16.47-4.06-24.85,1-6.16,3.41-10.47,3.14-16.69a52.2,52.2,0,0,0-3.05-15.11,19.19,19.19,0,0,1,4.88-19.94l3.29-1.82a131.81,131.81,0,0,1,68.49.44l2.35,1.38C236.92,397,229.29,407.13,228.68,412.6Zm-10.53-13.75c2.57-.52,9-3,7.63-5.52-1.67-3-12.27-4.22-14.54-4.38-20-1.43-19.08-3-39.77.27-1.84.29-15.11,2.25-15.21,4.11-.11,2.05,7.27,6,9.27,6.5,5.19,1.19,7,1.95,14.67,2.51,13,1,14,1.42,26.38-1.11Z"/><path class="cls-11" d="M225.78,393.33c1.4,2.53-5.06,5-7.63,5.52l-11.57,2.38c-12.4,2.53-13.38,2.09-26.38,1.11-7.64-.56-9.48-1.32-14.67-2.51-2-.48-9.38-4.45-9.27-6.5.1-1.86,13.37-3.82,15.21-4.11,20.69-3.24,19.81-1.7,39.77-.27C213.51,389.11,224.11,390.3,225.78,393.33Z"/><path class="cls-12" d="M206.58,401.23l11.57-2.38c2.57-.52,9-3,7.63-5.52-1.67-3-12.27-4.22-14.54-4.38-20-1.43-19.08-3-39.77.27-1.84.29-15.11,2.25-15.21,4.11-.11,2.05,7.27,6,9.27,6.5,5.19,1.19,7,1.95,14.67,2.51C193.2,403.32,194.18,403.76,206.58,401.23Z"/><path class="cls-12" d="M157.64,382.84a131.81,131.81,0,0,1,68.49.44l2.35,1.38c8.44,12.37.81,22.47.2,27.94-.94,8.42,3.56,15.21,2.24,23.59-1,6.17-.36,9.8-2.24,15.74-2.36,7.42,1.63,11.2,1.74,16.32.19,8.84-.9,16.67-14.34,20.14-8.61,2.22-39.57,8.05-59.34-4.8-8.4-6.36-3.91-16.85-3.3-22.34.94-8.4-5.35-16.47-4.06-24.85,1-6.16,3.41-10.47,3.14-16.69a52.2,52.2,0,0,0-3.05-15.11,19.19,19.19,0,0,1,4.88-19.94Z"/><path class="cls-13" d="M220.45,413.35a.36.36,0,0,1-.14.26,5.86,5.86,0,0,1-1.79,1.05c-5.7,2.46-8.27,4.84-14.4,5.55-3.14.36-10.41,1.34-13.57,1.34-6.54,0-12.75-1.4-19.09-3-2.71-.67-4.05-1.78-6.59-2.93a22.92,22.92,0,0,1-2.89-2,.44.44,0,0,1-.19-.33c0-.23.32-.3.55-.29,2.9.05,4.79,1.46,7.66,1.78s5.5,1,8.44,1.23c3.7.27,9.75,1.23,13.45,1.23,6.63,0,8.11-.45,14.68-1.16,2.32-.26,8.77-2.76,11.1-3a10.49,10.49,0,0,1,2.44-.05C220.25,413.14,220.43,413.2,220.45,413.35Z"/><path class="cls-13" d="M220.45,429.71a.36.36,0,0,1-.14.26,6.29,6.29,0,0,1-1.79,1c-5.7,2.45-8.27,4.84-14.4,5.54-3.14.36-10.41,1.34-13.57,1.34-6.54,0-12.75-1.39-19.09-3-2.71-.67-4.05-1.78-6.59-2.94a21,21,0,0,1-2.89-2,.42.42,0,0,1-.19-.33c0-.23.32-.29.55-.29,2.9.06,4.79,1.46,7.66,1.79s5.5,1,8.44,1.22c3.7.28,9.75,1.23,13.45,1.23,6.63,0,8.11-.44,14.68-1.16,2.32-.25,8.77-2.75,11.1-3a10.48,10.48,0,0,1,2.44,0C220.25,429.5,220.43,429.56,220.45,429.71Z"/><path class="cls-13" d="M220.45,446.62c0,.1-.07.18-.14.25a5.86,5.86,0,0,1-1.79,1.05c-5.7,2.46-8.27,4.85-14.4,5.55-3.14.36-10.41,1.34-13.57,1.34-6.54,0-12.75-1.4-19.09-3-2.71-.67-4.05-1.78-6.59-2.93a21.9,21.9,0,0,1-2.89-2,.44.44,0,0,1-.19-.33c0-.23.32-.3.55-.29,2.9.05,4.79,1.46,7.66,1.78s5.5,1,8.44,1.23c3.7.27,9.75,1.23,13.45,1.23,6.63,0,8.11-.45,14.68-1.16,2.32-.26,8.77-2.76,11.1-3a10.49,10.49,0,0,1,2.44-.05C220.25,446.4,220.43,446.46,220.45,446.62Z"/><path class="cls-13" d="M220.45,464.27c0,.1-.07.18-.14.25a5.86,5.86,0,0,1-1.79,1.05c-5.7,2.46-8.27,4.85-14.4,5.55-3.14.36-10.41,1.34-13.57,1.34-6.54,0-12.75-1.4-19.09-3-2.71-.67-4.05-1.78-6.59-2.93a21.9,21.9,0,0,1-2.89-2,.44.44,0,0,1-.19-.33c0-.23.32-.3.55-.29,2.9,0,4.79,1.46,7.66,1.78s5.5,1,8.44,1.23c3.7.27,9.75,1.23,13.45,1.23,6.63,0,8.11-.45,14.68-1.16,2.32-.25,8.77-2.76,11.1-3a10.49,10.49,0,0,1,2.44-.05C220.25,464.05,220.43,464.11,220.45,464.27Z"/></g><path class="cls-14" d="M68.47,229.74c11.11-1.05,24.87-3.74,33.75-10.3L91.9,209c-8.77,0-17.3,3.36-26.35,2.61-3.56-2-6.7-5.42-8.09-11.4,7.07-13.77-15.41-14.48-24.32-11.29C21.51,193,15.45,210.5,26.08,219.25,13.5,212.43,1.94,233,9.92,243c6.68,8.38,25.81,7.3,30.38-2.74-7,14.05-4.18,22.69,13,20.69,12.64-1.47,15.44-15,12.87-27.44Z"/><path class="cls-15" d="M68.47,229.74c11.11-1.05,24.87-3.74,33.75-10.3"/><path class="cls-16" d="M57.46,200.16c7.07-13.77-15.41-14.48-24.32-11.29C21.51,193,15.45,210.5,26.08,219.25,13.5,212.43,1.94,233,9.92,243c6.68,8.38,25.81,7.3,30.38-2.74-7,14.05-4.18,22.69,13,20.69,12.64-1.47,15.44-15,12.87-27.44"/><path class="cls-17" d="M91.9,209c-8.77,0-17.3,3.36-26.35,2.61"/></g></g></svg>