<svg xmlns="http://www.w3.org/2000/svg" width="375.01" height="433.13" viewBox="0 0 375.01 433.13"><defs><style>.cls-1{fill:#fff;}.cls-1,.cls-10,.cls-11,.cls-12,.cls-2,.cls-3,.cls-4,.cls-5,.cls-6,.cls-8,.cls-9{stroke:#000;stroke-miterlimit:10;}.cls-1,.cls-10,.cls-2,.cls-3,.cls-6,.cls-8,.cls-9{stroke-width:3px;}.cls-2{fill:#123177;}.cls-3{fill:#ffe0b3;}.cls-4,.cls-9{fill:none;}.cls-11,.cls-12,.cls-4{stroke-width:2px;}.cls-5{stroke-width:0.5px;}.cls-6{fill:#444;}.cls-7{fill:#ededed;}.cls-8{fill:#e5e5e5;}.cls-10{fill:#afafaf;}.cls-11{fill:#00e1ff;}.cls-12{fill:#b22200;}</style></defs><title>world0_2result</title><g id="レイヤー_2" data-name="レイヤー 2"><g id="一枚絵3"><path class="cls-1" d="M69,431.63H373.41c-1.26-19.42-2.71-39.27-4.35-60-2.95-37.39-22.69-79.71-47.13-98.33-21.32-16.24-63.12-33-110.06-49.17l-39.24-5.25c-30.38,13-82.63,31.77-111.56,47.72-6.79,3.74-13.69,7.69-18.66,13.65-6,7.24-22.55,40-24.95,49.08C9.73,358.78,4.7,394.06,1.63,431.63H69Z"/><path class="cls-2" d="M209.48,431.63c-4.61-67.67-11.34-153.35-18.9-246.12-8.19,88.13-14.8,170.92-19.18,246.12Z"/><polygon class="cls-2" points="169.27 253.35 211.87 253.35 206.66 268.56 203.5 277.79 177.64 277.79 174.48 268.56 169.27 253.35"/><path class="cls-1" d="M244.6,236.44c2.36,13.13,2.78,32.53.11,47.61-5-7.85-38-28.69-50-34.84Z"/><path class="cls-1" d="M133.27,238.61a322.94,322.94,0,0,0,9.93,45.44c7-10.35,27.53-28.84,38.07-32.49.25-.08-8.36-31.79-8.12-31.86Z"/><path class="cls-3" d="M121,180.33c6.26,28.12-1.49,39.75,19.79,53.81,6.23,4.12,39.42,17,46.5,17.7,4.9.5,37.39-5,42.2-6.15,27.78-6.71,27.8-20.29,37.15-52,1.77-6,2.16-6.48,2.89-11.23l.53-.07c1.82-.83,5.73-2.44,7.22-3.85a8.79,8.79,0,0,0,1.38-1.83c.3-.49.57-.94.82-1.45a22.25,22.25,0,0,1,1.45-2.14,19.86,19.86,0,0,0,1.5-3.24,12.8,12.8,0,0,0,1.1-3.39c.17-1.82.72-3.57.93-5.4a35.51,35.51,0,0,0,.3-4.37c0-4.29.34-8.69,0-12.95-.09-1.05-.36-2.09-.4-3.15a11.93,11.93,0,0,0,0-1.89,5.65,5.65,0,0,0-.58-1.33,25,25,0,0,1-.73-2.76,8.39,8.39,0,0,0-2.09-3.37,4.25,4.25,0,0,0-2.25-.22,8.12,8.12,0,0,0-6.49,3.24l1.13-16.58a133,133,0,0,0,1.78-16.58c.92-15.85-6.25-32.7-11-39.41-14.9-21-35.27-29.3-47.59-30.82-15.22-1.88-42.16-3.65-65,11.56-21.57,12.77-30.1,47.44-30.1,47.44s-1.45,9.55-.61,16.82c.91,12.07.91,10.24.82,20.67l-1-.44c-.49-1-2.26.11-3,.4a13.35,13.35,0,0,0-3.78,2.1,13.85,13.85,0,0,0-1.57,2.16c-1.68,2.14-1.83,4.46-1.83,7.06v13.47a38.91,38.91,0,0,0,1.3,8.6c.37,1.67,1.24,3.12,1.65,4.79.14.55.21,1.11.33,1.66a12.88,12.88,0,0,0,.7,1.6c.56,1.65,4.38,4.32,6.21,5.77Z"/><path class="cls-4" d="M166.42,184.36c-5.43,2.38-10.95,4.82-15.42,8.81s-7.81,9.88-7.41,16"/><path class="cls-4" d="M218.53,182.93c6,4.1,12.14,8.29,16.61,13.63s7.11,12.14,5.15,17.94"/><path class="cls-4" d="M186.41,153.67a18.33,18.33,0,0,1,.43,7.17c-.5,2.36-2.22,4.62-4.52,4.86-1.27.14-2.6-.33-3.81.09-2.28.79-2.62,4-2.56,6.46a4.42,4.42,0,0,0,.46,2.22,3.36,3.36,0,0,0,1.57,1.21,9.67,9.67,0,0,0,6.88.37,5.59,5.59,0,0,1,2.75-.53c1.15.23,1.94,1.34,3,1.77,3,1.16,5.9-3.06,9-2.2a8.25,8.25,0,0,1,2.35,1.42,10.8,10.8,0,0,0,6.46,2,2.38,2.38,0,0,0,1.73-.59,2.91,2.91,0,0,0,.54-1.95c.1-3.11-.13-6.87-2.74-8.36-1.79-1-4.07-.54-5.93-1.41-3.1-1.45-3.62-5.75-3.7-9.3"/><path class="cls-4" d="M176.91,140.68c.06,2.7-9,3.31-10.47,3.44-3.75.33-7.74,1.1-11.51,1a16.56,16.56,0,0,1-5.58-1.22,64,64,0,0,1-6.48-2.65"/><path class="cls-5" d="M240.3,121a57.23,57.23,0,0,1-22.16-5.81,11.44,11.44,0,0,1-3.22-2.11c-2.28-2.38-1.37-5.43-2-8.21a106.73,106.73,0,0,0,33.31,13.93,8.93,8.93,0,0,1,2.61.88c3,1.79,0,1.76-1.48,1.62C245,121.11,242.65,121.14,240.3,121Z"/><path class="cls-4" d="M246.38,144.42c-.43,1.22-4.34,1.14-5.27,1.22-2.05.17-4.13.29-6.14.54-3,.38-6.14-.25-9.16-.49a33.66,33.66,0,0,1-9.26-2.15c-1-.39-1.94-.52-3-.87s-1.9-1.07-2.94-1.33"/><path class="cls-5" d="M149.81,120.7a55.33,55.33,0,0,0,22.32-5.19,11.31,11.31,0,0,0,3.26-2.06c2.32-2.37,1.44-5.55,2.14-8.4a102.84,102.84,0,0,1-33.62,13.17,8.49,8.49,0,0,0-2.63.82c-3,1.74-.06,1.8,1.47,1.71C145.12,120.61,147.45,120.73,149.81,120.7Z"/><path class="cls-6" d="M111.88,129.45c4.11-10.72,5.49-17.17,7.23-27.11,1.68-9.55,3.66-22.62,10.52-31.28a157,157,0,0,1-.16,35.93,80.71,80.71,0,0,1,28.26-51.26l3.32,15.84,23.61-18.65,8.56,16.81c5-.64,20.6-10.74,24.23-14.29,2.89,2.88,13.05,18.61,15.94,21.5,6.91-3.91,13.28-14,20.19-17.92C267,72.94,259.23,91.52,264,110.25a43.2,43.2,0,0,0,11.89-11.33A172.68,172.68,0,0,1,279.32,118a55.09,55.09,0,0,1,2.6,18.08c15.17-16.6,11.71-37.29,11.08-59.78-.32-11.24-9.17-26.83-15.46-36.15C268.4,26.59,243.35,7.85,227.39,4.38c-32.33-7-67.69-2-95.29,24C121.68,38.22,120.47,41.28,114.57,54c-4.31,9.26-7,32.85-6.92,40C107.76,102.79,114.78,121.9,111.88,129.45Z"/><line class="cls-1" x1="84" y1="371.06" x2="79.56" y2="431.63"/><line class="cls-1" x1="291.09" y1="371.06" x2="295.53" y2="431.63"/><path class="cls-7" d="M68.47,229.74c11.11-1.05,24.87-3.74,33.75-10.3L91.9,209c-8.77,0-17.3,3.36-26.35,2.61-3.56-2-6.7-5.42-8.09-11.4,7.07-13.77-15.41-14.48-24.32-11.29C21.51,193,15.45,210.5,26.08,219.25,13.5,212.43,1.94,233,9.92,243c6.68,8.38,25.81,7.3,30.38-2.74-7,14.05-4.18,22.69,13,20.69,12.64-1.47,15.44-15,12.87-27.44Z"/><path class="cls-8" d="M68.47,229.74c11.11-1.05,24.87-3.74,33.75-10.3"/><path class="cls-9" d="M57.46,200.16c7.07-13.77-15.41-14.48-24.32-11.29C21.51,193,15.45,210.5,26.08,219.25,13.5,212.43,1.94,233,9.92,243c6.68,8.38,25.81,7.3,30.38-2.74-7,14.05-4.18,22.69,13,20.69,12.64-1.47,15.44-15,12.87-27.44"/><path class="cls-10" d="M91.9,209c-8.77,0-17.3,3.36-26.35,2.61"/><path class="cls-11" d="M255.17,154.08l-4.39,21.34c-.57,2.77-1.13,5.72-.14,8.37s4.19,4.68,6.71,3.38a5.08,5.08,0,0,0,2.47-3.72,14.93,14.93,0,0,0-.14-4.62l-2.43-18.46"/><path class="cls-12" d="M212.27,222.29l-29.78-.6c-2.07-.05-4.26-.12-6-1.22s-2.8-3.62-1.6-5.32a5.39,5.39,0,0,1,3.37-1.78A40.39,40.39,0,0,1,209.42,219Z"/></g></g></svg>