<svg xmlns="http://www.w3.org/2000/svg" viewBox="0 0 222.5 371.8"><defs><style>.cls-1{fill:#333;}.cls-2,.cls-6,.cls-7,.cls-8{fill:none;}.cls-10,.cls-2,.cls-3,.cls-4,.cls-7{stroke:#000;}.cls-10,.cls-2,.cls-3,.cls-4,.cls-6,.cls-7,.cls-8{stroke-miterlimit:10;}.cls-3{fill:#f46545;}.cls-4,.cls-5{fill:#ffeacf;}.cls-6{stroke:#1a1a1a;}.cls-7{stroke-width:5px;}.cls-8{stroke:#f15a24;stroke-width:3px;}.cls-9{fill:#fff;}.cls-10{fill:#f7931e;}</style></defs><title>アセット 3</title><g id="レイヤー_2" data-name="レイヤー 2"><g id="レイヤー_1-2" data-name="レイヤー 1"><path class="cls-1" d="M214.11,133.46c.82,22.66,1.55,70-5.56,88.12,0,0,2.44,35.68,11,44.7-.49-.3-16-10-16-13.49,0,0-1.83,12.17-.5,14.17,0,0-21.33-5-20.67-8.92,0,0-1.61,10.77-2.28,12.1L37.62,275.68c-.38.63-1.9-1.72-1.9-1.72-6,5.66-14.63,4.66-14.63,4.66,14.72-19,9-55.33,9-55.33C-23.45,159.54,12.05,67,12.05,67S30.14,11.4,94,1.94c0,0,44.51-9.47,79.06,20.19S215.56,79.24,214.06,116Z"/><line class="cls-2" x1="219.55" y1="266.29" x2="219.54" y2="266.28"/><path class="cls-2" d="M219.54,266.28c-.49-.3-16-10-16-13.49,0,0-1.83,12.17-.5,14.17,0,0-21.33-5-20.67-8.92,0,0-1.61,10.77-2.28,12.1L37.62,275.68c-.38.63-1.9-1.72-1.9-1.72-6,5.66-14.63,4.66-14.63,4.66,14.72-19,9-55.33,9-55.33C-23.45,159.54,12.05,67,12.05,67S30.14,11.4,94,1.94c0,0,44.51-9.47,79.06,20.19S215.56,79.24,214.06,116l.05,17.45c.82,22.66,1.55,70-5.56,88.12C208.55,221.58,211,257.26,219.54,266.28Z"/><path class="cls-3" d="M90.85,235s-38.37,25-48.59,32.34-31.21,104-31.21,104H216.38s-21-96.67-31.22-104S136.57,235,136.57,235"/><path class="cls-4" d="M137.63,226.15s-2.42,11.14,0,14.14-20.25,21-20.25,21S89.54,253,90,251a56.48,56.48,0,0,0,.42-7.33c3-4.67-1.82-16.17-1.82-16.17"/><path class="cls-5" d="M167.93,75s11.9,79.54,7.55,127.93c0,0-31.26,23.49-61.93,32,0,0-58.17-15.17-60-23,0,0-12.14-57.74,6.71-114l.3-.89c.28.82,12.69,37.71,15.66,37.88,0,0-3.41-10.39-3.18-16.75,1.95,6.34,4.44,12.11,7.63,16.2l1.76,1.76s8.5-13.92,74.24-1.21C156.67,135,170.3,116,167.93,75Z"/><path class="cls-6" d="M60.56,97.08c.28.82,12.69,37.71,15.66,37.88,0,0-3.41-10.39-3.18-16.75,0-.09,0-.17,0-.25"/><path class="cls-6" d="M66.3,75s.92,24.17,6.74,43.17c1.95,6.34,4.44,12.11,7.63,16.2l1.76,1.76s8.5-13.92,74.24-1.21c0,0,13.63-18.92,11.26-59.92,0,0,11.9,79.54,7.55,127.93a121.61,121.61,0,0,1-2.68,17.44s8.75-12.29,11.58-37.62"/><path class="cls-6" d="M175.48,203s-31.26,23.49-61.93,32c0,0-58.17-15.17-60-23,0,0-12.14-57.74,6.71-114l.3-.89h0l.16-.45"/><path class="cls-7" d="M132.3,179.42s11.75-7.88,30.13-1.13"/><ellipse class="cls-8" cx="59.3" cy="187.41" rx="4.88" ry="1"/><ellipse class="cls-8" cx="165.05" cy="186.41" rx="4.88" ry="1"/><path class="cls-7" d="M91.43,180.42s-11.75-7.88-30.13-1.13"/><path class="cls-2" d="M130.05,207.29a24.65,24.65,0,0,1-31,1"/><path class="cls-6" d="M82.05,161.29s5-1,7,2"/><path class="cls-6" d="M133.05,163.29s4-3,8-2"/><path class="cls-6" d="M54.55,212s.5,22.34,8.25,41.09c0,0-25.25-39.92-19.75-72.92"/><circle class="cls-9" cx="93.05" cy="93.29" r="8"/><circle class="cls-9" cx="32.55" cy="81.79" r="6"/><circle class="cls-9" cx="110.55" cy="97.29" r="3"/><circle class="cls-9" cx="190.05" cy="73.29" r="3"/><path class="cls-10" d="M92.55,370.79c2-1,17-80,17-80l6,4,5-4,17.26,80.5Z"/><path class="cls-10" d="M100.38,370.87s13.17-48.08,12.17-56.08"/><polyline class="cls-10" points="121.55 370.79 118.55 334.79 116.55 341.79"/><line class="cls-10" x1="62.55" y1="324.79" x2="54.92" y2="370.79"/><line class="cls-10" x1="158.78" y1="317.79" x2="174.61" y2="371.29"/></g></g></svg>