<svg xmlns="http://www.w3.org/2000/svg" viewBox="0 0 255.28 371.8"><defs><style>.cls-1{fill:#333;}.cls-2,.cls-6,.cls-7,.cls-9{fill:none;}.cls-10,.cls-12,.cls-13,.cls-2,.cls-3,.cls-4,.cls-7,.cls-8{stroke:#000;}.cls-10,.cls-12,.cls-13,.cls-2,.cls-3,.cls-4,.cls-6,.cls-7,.cls-8,.cls-9{stroke-miterlimit:10;}.cls-3{fill:#f46545;}.cls-4,.cls-5{fill:#ffeacf;}.cls-6{stroke:#1a1a1a;}.cls-7,.cls-9{stroke-width:3px;}.cls-8{fill:#ff408e;}.cls-9{stroke:#f15a24;}.cls-10{fill:#ffe0b3;}.cls-11{fill:#fff;}.cls-12{fill:#f7931e;}.cls-13{fill:#8ff4ff;}</style></defs><title>アセット 6</title><g id="レイヤー_2" data-name="レイヤー 2"><g id="レイヤー_1-2" data-name="レイヤー 1"><path class="cls-1" d="M246.89,133.46c.82,22.66,1.55,70-5.56,88.12,0,0,2.44,35.68,11,44.7-.49-.3-16-10-16-13.49,0,0-1.83,12.17-.5,14.17,0,0-21.33-5-20.67-8.92,0,0-1.61,10.77-2.28,12.1L70.4,275.68c-.38.63-1.9-1.72-1.9-1.72-6,5.66-14.63,4.66-14.63,4.66,14.72-19,9-55.33,9-55.33C9.33,159.54,44.83,67,44.83,67s18.09-55.56,81.9-65c0,0,44.51-9.47,79.06,20.19S248.34,79.24,246.84,116Z"/><line class="cls-2" x1="252.33" y1="266.29" x2="252.32" y2="266.28"/><path class="cls-2" d="M252.32,266.28c-.49-.3-16-10-16-13.49,0,0-1.83,12.17-.5,14.17,0,0-21.33-5-20.67-8.92,0,0-1.61,10.77-2.28,12.1L70.4,275.68c-.38.63-1.9-1.72-1.9-1.72-6,5.66-14.63,4.66-14.63,4.66,14.72-19,9-55.33,9-55.33C9.33,159.54,44.83,67,44.83,67s18.09-55.56,81.9-65c0,0,44.51-9.47,79.06,20.19S248.34,79.24,246.84,116l0,17.45c.82,22.66,1.55,70-5.56,88.12C241.33,221.58,243.77,257.26,252.32,266.28Z"/><path class="cls-3" d="M123.63,235S85.26,260,75,267.29s-31.21,104-31.21,104H249.16s-21-96.67-31.22-104S169.35,235,169.35,235"/><path class="cls-4" d="M170.41,226.15s-2.42,11.14,0,14.14-20.25,21-20.25,21S122.32,253,122.74,251a56.48,56.48,0,0,0,.42-7.33c3-4.67-1.82-16.17-1.82-16.17"/><path class="cls-5" d="M201.71,75s11.9,79.54,7.55,127.93c0,0-31.26,23.49-61.93,32,0,0-58.17-15.17-60-23,0,0-12.14-57.74,6.71-114l.3-.89C94.62,97.9,107,134.79,110,135c0,0-3.41-10.39-3.18-16.75,2,6.34,4.44,12.11,7.63,16.2l1.76,1.76s8.5-13.92,74.24-1.21C190.45,135,204.08,116,201.71,75Z"/><path class="cls-6" d="M94.34,97.08C94.62,97.9,107,134.79,110,135c0,0-3.41-10.39-3.18-16.75,0-.09,0-.17,0-.25"/><path class="cls-6" d="M100.08,75s.92,24.17,6.74,43.17c2,6.34,4.44,12.11,7.63,16.2l1.76,1.76s8.5-13.92,74.24-1.21c0,0,13.63-18.92,11.26-59.92,0,0,11.9,79.54,7.55,127.93a121.61,121.61,0,0,1-2.68,17.44s8.75-12.29,11.58-37.62"/><path class="cls-6" d="M209.26,203S178,226.46,147.33,235c0,0-58.17-15.17-60-23,0,0-12.14-57.74,6.71-114l.3-.89h0l.16-.45"/><path class="cls-6" d="M87.33,212s.5,22.34,8.25,41.09c0,0-25.25-39.92-19.75-72.92"/><path class="cls-7" d="M123.5,161.16s-8.5,9.13-30.38,6.75"/><path class="cls-7" d="M165.59,161.06s11.75,7.87,30.12,1.12"/><path class="cls-8" d="M150.83,207.19a4.74,4.74,0,0,0,.81-4.81c-1.22-2.41-4.94-2-5.78-1.94-1.18.13-3.41.36-4.31,2.16a4.57,4.57,0,0,0,.34,4"/><ellipse class="cls-9" cx="92.58" cy="177.91" rx="4.88" ry="1"/><ellipse class="cls-9" cx="198.33" cy="177.91" rx="4.88" ry="1"/><path class="cls-10" d="M120.08,155.66s-2.38,2-4.38,1.5"/><path class="cls-10" d="M169.2,154.54s2.38,3.16,4.25,2.7"/><circle class="cls-11" cx="125.83" cy="93.29" r="8"/><circle class="cls-11" cx="65.33" cy="81.79" r="6"/><circle class="cls-11" cx="143.33" cy="97.29" r="3"/><circle class="cls-11" cx="222.83" cy="73.29" r="3"/><path class="cls-12" d="M125.33,370.79c2-1,17-80,17-80l6,4,5-4,17.26,80.5Z"/><path class="cls-12" d="M133.16,370.87s13.17-48.08,12.17-56.08"/><polyline class="cls-12" points="154.33 370.79 151.33 334.79 149.33 341.79"/><line class="cls-12" x1="191.56" y1="317.79" x2="207.4" y2="371.29"/><path class="cls-13" d="M16.33,34.79s-32-12-5,4"/><path class="cls-13" d="M16.33,49.79s-32-12-5,4"/><polyline class="cls-2" points="83.33 334.79 100.33 310.79 127.33 330.79 117.34 371.29"/><path class="cls-4" d="M104.66,314.26s-2.33-16.47.67-18.47,4,3,4,3,6-8,10-7,10,1,7,16-5.94,18.12-5.94,18.12Z"/></g></g></svg>