<svg xmlns="http://www.w3.org/2000/svg" viewBox="0 0 262.7 389.34"><defs><style>.cls-1{fill:#333;}.cls-2,.cls-6,.cls-7{fill:none;}.cls-12,.cls-2,.cls-3,.cls-4,.cls-9{stroke:#000;}.cls-12,.cls-2,.cls-3,.cls-4,.cls-6,.cls-7,.cls-9{stroke-miterlimit:10;}.cls-3,.cls-5{fill:#ffeacf;}.cls-4{fill:#c1272d;}.cls-6{stroke:#1a1a1a;}.cls-7{stroke:#f15a24;stroke-width:3px;}.cls-8,.cls-9{fill:#fff;}.cls-9{stroke-width:5px;}.cls-10{fill:#ff4343;}.cls-11{fill:#c10e0e;}.cls-12{fill:#ff0;}</style></defs><title>アセット 4</title><g id="レイヤー_2" data-name="レイヤー 2"><g id="レイヤー_1-2" data-name="レイヤー 1"><path class="cls-1" d="M254.31,133.46c.82,22.66,1.55,70-5.56,88.12,0,0,2.44,35.68,11,44.7-.49-.3-16-10-16-13.49,0,0-1.83,12.17-.5,14.17,0,0-21.33-5-20.67-8.92,0,0-1.61,10.77-2.28,12.1L77.82,275.68c-.38.63-1.9-1.72-1.9-1.72-6,5.66-14.63,4.66-14.63,4.66,14.72-19,9-55.33,9-55.33C16.75,159.54,52.25,67,52.25,67s18.09-55.56,81.9-65c0,0,44.51-9.47,79.06,20.19s42.55,57.11,41,93.88Z"/><line class="cls-2" x1="259.75" y1="266.29" x2="259.74" y2="266.28"/><path class="cls-2" d="M259.74,266.28c-.49-.3-16-10-16-13.49,0,0-1.83,12.17-.5,14.17,0,0-21.33-5-20.67-8.92,0,0-1.61,10.77-2.28,12.1L77.82,275.68c-.38.63-1.9-1.72-1.9-1.72-6,5.66-14.63,4.66-14.63,4.66,14.72-19,9-55.33,9-55.33C16.75,159.54,52.25,67,52.25,67s18.09-55.56,81.9-65c0,0,44.51-9.47,79.06,20.19s42.55,57.11,41,93.88l.05,17.45c.82,22.66,1.55,70-5.56,88.12C248.75,221.58,251.19,257.26,259.74,266.28Z"/><path class="cls-3" d="M119.84,274.63,85.24,388.75H58.84l7-28.32S94,260.23,104,253.59s47.08-28.88,47.08-28.88"/><path class="cls-3" d="M187.09,275l35.72,113.82,26.53-.22-7.25-28.27s-29.19-100-39.25-106.51-47.54-28.48-47.54-28.48"/><path class="cls-4" d="M131.09,234.84s-37,70.92-35.26,92.28c.12,1.58.25,3.18.39,4.78L78.75,388.79h154L210.18,331.9c.13-1.32.26-2.63.38-3.95,2.08-22.22-34.07-95-34.07-95"/><path class="cls-3" d="M177.83,226.15s-2.42,11.14,0,14.14-20.25,21-20.25,21S129.74,253,130.16,251a56.48,56.48,0,0,0,.42-7.33c3-4.67-1.82-16.17-1.82-16.17"/><path class="cls-5" d="M208.13,75S220,154.57,215.68,203c0,0-31.26,23.49-61.93,32,0,0-58.17-15.17-60-23,0,0-12.14-57.74,6.71-114l.3-.89c.28.82,12.69,37.71,15.66,37.88,0,0-3.41-10.39-3.18-16.75,2,6.34,4.44,12.11,7.63,16.21l1.76,1.75s8.5-13.92,74.24-1.21C196.87,135,210.5,116,208.13,75Z"/><path class="cls-6" d="M100.76,97.08c.28.82,12.69,37.71,15.66,37.88,0,0-3.41-10.39-3.18-16.75,0-.09,0-.17,0-.25"/><path class="cls-6" d="M213,220.42h0c.3-.41,8.8-12.72,11.58-37.62"/><path class="cls-6" d="M106.5,75s.92,24.17,6.74,43.17c2,6.34,4.44,12.11,7.63,16.21l1.76,1.75s8.5-13.92,74.24-1.21c0,0,13.63-18.92,11.26-59.92,0,0,11.9,79.53,7.55,127.93A121.83,121.83,0,0,1,213,220.41"/><path class="cls-6" d="M215.68,203s-31.26,23.49-61.93,32c0,0-58.17-15.17-60-23,0,0-12.14-57.74,6.71-114l.3-.89h0l.16-.45"/><ellipse class="cls-7" cx="108.5" cy="181.41" rx="4.88" ry="1"/><ellipse class="cls-7" cx="195.25" cy="180.41" rx="4.88" ry="1"/><path class="cls-6" d="M94.75,212s.5,22.34,8.25,41.09c0,0-25.25-39.92-19.75-72.92"/><circle class="cls-8" cx="133.25" cy="93.29" r="8"/><circle class="cls-8" cx="72.75" cy="81.79" r="6"/><circle class="cls-8" cx="150.75" cy="97.29" r="3"/><circle class="cls-8" cx="230.25" cy="73.29" r="3"/><ellipse class="cls-9" cx="117.75" cy="163.29" rx="4" ry="8.5"/><ellipse class="cls-9" cx="184.75" cy="163.29" rx="4" ry="8.5"/><path class="cls-10" d="M170.8,201.07v5.84h0c-.24,3.75-8,6.75-17.53,6.75s-17.29-3-17.53-6.75h0v-8.22l5.5-5.63h4.94c2.19-.2,4.69-1.14,7.1-.05,2.39-1.06,4.94-1.82,7.1.05,4.36,0,7.57-1.77,7.64,0,1.42-1.77,2.81,1,2.81,2.18Z"/><path class="cls-10" d="M141.21,193.06l-5.5,5.63a13.42,13.42,0,0,1,1.42-2.71C138.06,194.6,139.44,193.19,141.21,193.06Z"/><path class="cls-11" d="M138.51,193.06h2.7c-1.77.13-3.15,1.54-4.08,2.92a13.42,13.42,0,0,0-1.42,2.71v-3.45C135.7,194,137,193.06,138.51,193.06Z"/><path class="cls-2" d="M141.21,193.06h-2.7c-1.55,0-2.81,1-2.81,2.18v11.67h0c.24,3.75,8,6.75,17.53,6.75s17.29-3,17.53-6.75h0V195.24c0-1.21-1.39-4-2.81-2.18-.07-1.77-3.28,0-7.64,0-2.16-1.87-4.71-1.11-7.1-.05-2.41-1.09-4.91-.15-7.1.05Z"/><path class="cls-2" d="M135.71,198.69a13.42,13.42,0,0,1,1.42-2.71c.93-1.38,2.31-2.79,4.08-2.92"/><line class="cls-2" x1="135.71" y1="198.69" x2="135.7" y2="198.71"/><path class="cls-2" d="M122.75,146.79s-5-5-9,0"/><path class="cls-2" d="M187.75,146.79s-5-5-9,0"/><path class="cls-12" d="M34.61,44.63A11.31,11.31,0,0,1,43,36.27a12.92,12.92,0,0,1-8-8,12.15,12.15,0,0,1-8.35,8.35,12.89,12.89,0,0,1,8,8Z"/><path class="cls-12" d="M15.37,89.51A19.55,19.55,0,0,1,21,79.82a19.34,19.34,0,0,1,8.64-4.62A22.21,22.21,0,0,1,16,61.48a21.08,21.08,0,0,1-5.67,9.35,21,21,0,0,1-8.65,5,22.27,22.27,0,0,1,9.1,6A22.28,22.28,0,0,1,15.37,89.51Z"/></g></g></svg>