<svg xmlns="http://www.w3.org/2000/svg" width="128.1" height="128.1" viewBox="0 0 128.1 128.1">
  <defs>
    <style>
      .cls-1 {
        fill: #848483;
      }

      .cls-2 {
        fill: #fff;
      }
    </style>
  </defs>
  <title>clear--retry</title>
  <g id="レイヤー_2" data-name="レイヤー 2">
    <g id="一枚絵4">
      <rect class="cls-1" width="128.1" height="128.1" rx="29.98"/>
      <path class="cls-2" d="M62,105.62c-18.73.3-37.19-13.48-40.84-34.26A41.51,41.51,0,0,1,54.65,23.18a40.23,40.23,0,0,1,34.06,9c9.86,8.23,14.67,19,15,31.91H114c-7,9-13.79,17.92-20.73,27L72.61,64.15H82.8c.53-8.1-5.39-18.2-16.57-20.55a21,21,0,0,0-24.7,16.5C39.1,73,49,85.1,62,85Z"/>
    </g>
  </g>
</svg>
