<svg xmlns="http://www.w3.org/2000/svg" width="375.01" height="433.13" viewBox="0 0 375.01 433.13"><defs><style>.cls-1{fill:#fff;}.cls-1,.cls-2,.cls-3,.cls-4,.cls-5,.cls-6,.cls-7,.cls-8{stroke:#000;stroke-miterlimit:10;}.cls-1,.cls-2,.cls-3,.cls-5,.cls-8{stroke-width:3px;}.cls-2{fill:#123177;}.cls-3{fill:#ffe0b3;}.cls-4{fill:none;stroke-width:2px;}.cls-5{fill:#444;}.cls-6{stroke-width:0.5px;}.cls-7{fill:#00e1ff;}.cls-8{fill:#ff0;}</style></defs><title>world0_3result</title><g id="レイヤー_2" data-name="レイヤー 2"><g id="一枚絵4"><path class="cls-1" d="M69,431.63H373.41c-1.26-19.42-2.71-39.27-4.35-60-2.95-37.39-22.69-79.71-47.13-98.33-21.32-16.24-63.12-33-110.06-49.17l-39.24-5.25c-30.38,13-82.63,31.77-111.56,47.72-6.79,3.74-13.69,7.69-18.66,13.65-6,7.24-22.55,40-24.95,49.08C9.73,358.78,4.7,394.06,1.63,431.63H69Z"/><path class="cls-2" d="M209.48,431.63c-4.61-67.67-11.34-153.35-18.9-246.12-8.19,88.13-14.8,170.92-19.18,246.12Z"/><polygon class="cls-2" points="169.27 253.35 211.87 253.35 206.66 268.56 203.5 277.79 177.64 277.79 174.48 268.56 169.27 253.35"/><path class="cls-1" d="M244.6,236.44c2.36,13.13,2.78,32.53.11,47.61-5-7.85-38-28.69-50-34.84Z"/><path class="cls-1" d="M133.27,238.61a322.94,322.94,0,0,0,9.93,45.44c7-10.35,27.53-28.84,38.07-32.49.25-.08-8.36-31.79-8.12-31.86Z"/><line class="cls-1" x1="84" y1="371.06" x2="79.56" y2="431.63"/><line class="cls-1" x1="291.09" y1="371.06" x2="295.53" y2="431.63"/><path class="cls-3" d="M121,180.33c6.26,28.12-1.49,39.75,19.79,53.81,6.23,4.12,39.42,17,46.5,17.7,4.9.5,37.39-5,42.2-6.15,27.78-6.71,27.8-20.29,37.15-52,1.77-6,2.16-6.48,2.89-11.23l.53-.07c1.82-.83,5.73-2.44,7.22-3.85a8.79,8.79,0,0,0,1.38-1.83c.3-.49.57-.94.82-1.45a22.25,22.25,0,0,1,1.45-2.14,19.86,19.86,0,0,0,1.5-3.24,12.8,12.8,0,0,0,1.1-3.39c.17-1.82.72-3.57.93-5.4a35.51,35.51,0,0,0,.3-4.37c0-4.29.34-8.69,0-12.95-.09-1.05-.36-2.09-.4-3.15a11.93,11.93,0,0,0,0-1.89,5.65,5.65,0,0,0-.58-1.33,25,25,0,0,1-.73-2.76,8.39,8.39,0,0,0-2.09-3.37,4.25,4.25,0,0,0-2.25-.22,8.12,8.12,0,0,0-6.49,3.24l1.13-16.58a133,133,0,0,0,1.78-16.58c.92-15.85-6.25-32.7-11-39.41-14.9-21-35.27-29.3-47.59-30.82-15.22-1.88-42.16-3.65-65,11.56-21.57,12.77-30.1,47.44-30.1,47.44s-1.45,9.55-.61,16.82c.91,12.07.91,10.24.82,20.67l-1-.44c-.49-1-2.26.11-3,.4a13.35,13.35,0,0,0-3.78,2.1,13.85,13.85,0,0,0-1.57,2.16c-1.68,2.14-1.83,4.46-1.83,7.06v13.47a38.91,38.91,0,0,0,1.3,8.6c.37,1.67,1.24,3.12,1.65,4.79.14.55.21,1.11.33,1.66a12.88,12.88,0,0,0,.7,1.6c.56,1.65,4.38,4.32,6.21,5.77Z"/><path class="cls-4" d="M166.42,184.36c-5.43,2.38-10.95,4.82-15.42,8.81s-7.81,9.88-7.41,16"/><path class="cls-4" d="M218.53,182.93c6,4.1,12.14,8.29,16.61,13.63s7.11,12.14,5.15,17.94"/><path class="cls-4" d="M186.41,153.67a18.33,18.33,0,0,1,.43,7.17c-.5,2.36-2.22,4.62-4.52,4.86-1.27.14-2.6-.33-3.81.09-2.28.79-2.62,4-2.56,6.46a4.42,4.42,0,0,0,.46,2.22,3.36,3.36,0,0,0,1.57,1.21,9.67,9.67,0,0,0,6.88.37,5.59,5.59,0,0,1,2.75-.53c1.15.23,1.94,1.34,3,1.77,3,1.16,5.9-3.06,9-2.2a8.25,8.25,0,0,1,2.35,1.42,10.8,10.8,0,0,0,6.46,2,2.38,2.38,0,0,0,1.73-.59,2.91,2.91,0,0,0,.54-1.95c.1-3.11-.13-6.87-2.74-8.36-1.79-1-4.07-.54-5.93-1.41-3.1-1.45-3.62-5.75-3.7-9.3"/><path class="cls-5" d="M111.88,129.45c4.11-10.72,5.49-17.17,7.23-27.11,1.68-9.55,3.66-22.62,10.52-31.28a157,157,0,0,1-.16,35.93,80.71,80.71,0,0,1,28.26-51.26l3.32,15.84,23.61-18.65,8.56,16.81c5-.64,20.6-10.74,24.23-14.29,2.89,2.88,13.05,18.61,15.94,21.5,6.91-3.91,13.28-14,20.19-17.92C267,72.94,259.23,91.52,264,110.25a43.2,43.2,0,0,0,11.89-11.33A172.68,172.68,0,0,1,279.32,118a55.09,55.09,0,0,1,2.6,18.08c15.17-16.6,11.71-37.29,11.08-59.78-.32-11.24-9.17-26.83-15.46-36.15C268.4,26.59,243.35,7.85,227.39,4.38c-32.33-7-67.69-2-95.29,24C121.68,38.22,120.47,41.28,114.57,54c-4.31,9.26-7,32.85-6.92,40C107.76,102.79,114.78,121.9,111.88,129.45Z"/><path class="cls-4" d="M210.38,210.24a57.17,57.17,0,0,1-34.2-.07"/><path class="cls-6" d="M238.58,110a57.23,57.23,0,0,1-22.16-5.81,11.44,11.44,0,0,1-3.22-2.11c-2.28-2.38-1.37-5.43-2-8.22a106.51,106.51,0,0,0,33.31,13.94,8.65,8.65,0,0,1,2.61.88c3,1.79,0,1.76-1.48,1.61C243.25,110.08,240.93,110.11,238.58,110Z"/><path class="cls-6" d="M148.09,109.67a55.33,55.33,0,0,0,22.32-5.19,11.31,11.31,0,0,0,3.26-2.06c2.32-2.38,1.44-5.55,2.14-8.4a102.84,102.84,0,0,1-33.62,13.17,8.49,8.49,0,0,0-2.63.82c-3,1.74-.06,1.8,1.47,1.71C143.4,109.58,145.73,109.7,148.09,109.67Z"/><path class="cls-7" d="M149.21,140.21c.13,1-.92,2-1.48,2.83-1.53,2.23-1.38,4.82-2,7.23-.71,2.75-.47,5.51-.49,8.29,0,1.27-.08,2.55,0,3.82a23.44,23.44,0,0,0,.85,3.57,23.54,23.54,0,0,1-1.46,15.65c-1.55,3.35-3.44,6.62-4.76,10-.8,2.07-1.34,4.16-2.21,6.22a26.55,26.55,0,0,0-1.59,4c-.49,2-.47,4.11-.81,6.15a23.89,23.89,0,0,0-.44,4.45,3.39,3.39,0,0,1,0,.9c-.06.23-.35.4-.4.56a5.45,5.45,0,0,0-.11,1.76,20.46,20.46,0,0,0,0,3.5c.09.54.44.82.52,1.36a15.26,15.26,0,0,0,.09,2.14,4.9,4.9,0,0,1,.4,1.69s-1.19,3.78-1.19,3.83l-4.62-3.69a4.39,4.39,0,0,0-.38-1.83,13.88,13.88,0,0,1-.1-2.14c-.08-.54-.43-.82-.52-1.36a21.53,21.53,0,0,1,0-3.5,5.74,5.74,0,0,1,.11-1.76c0-.16.35-.33.4-.56a3.87,3.87,0,0,0,0-.9,24.75,24.75,0,0,1,.43-4.45c.34-2,.33-4.13.81-6.15a26.55,26.55,0,0,1,1.59-4c.88-2.06,1.41-4.15,2.21-6.22,1.32-3.4,3.21-6.67,4.76-10A23.55,23.55,0,0,0,140.34,166a23.48,23.48,0,0,1-.86-3.57c-.1-1.27,0-2.55,0-3.82,0-2.78-.22-5.54.48-8.29.62-2.41.46-5,2-7.23.57-.83,1.62-1.87,1.49-2.83"/><path class="cls-7" d="M238.74,141.52c-.13,1,.92,2,1.49,2.83,1.53,2.23,1.37,4.83,2,7.24.7,2.74.47,5.5.48,8.28,0,1.27.08,2.55,0,3.83a24.06,24.06,0,0,1-.86,3.57,23.46,23.46,0,0,0,1.47,15.64c1.55,3.35,3.44,6.63,4.76,10,.8,2.07,1.33,4.17,2.21,6.22a26.66,26.66,0,0,1,1.59,4.06c.48,2,.47,4.11.81,6.15a24.64,24.64,0,0,1,.43,4.44,3.89,3.89,0,0,0,0,.9c.06.23.36.41.41.56a5.76,5.76,0,0,1,.11,1.76,21.65,21.65,0,0,1,0,3.51c-.09.53-.45.81-.52,1.36A15.41,15.41,0,0,1,253,224a5.28,5.28,0,0,0-.4,1.68s1.35,3.59,1.36,3.63l3.5-3.58c-.11-.64.79-1.43.95-2a12.74,12.74,0,0,0,.49-1.83c.07-.55.42-.83.51-1.36a20.57,20.57,0,0,0,0-3.51,5.47,5.47,0,0,0-.11-1.76c0-.15-.34-.33-.4-.56a3.89,3.89,0,0,1,0-.9,23.78,23.78,0,0,0-.44-4.44c-.34-2-.32-4.13-.81-6.15a25.66,25.66,0,0,0-1.59-4.06c-.87-2.05-1.41-4.15-2.21-6.22-1.32-3.39-3.21-6.67-4.76-10a23.52,23.52,0,0,1-1.46-15.64,24,24,0,0,0,.85-3.57c.11-1.28,0-2.56,0-3.83,0-2.78.22-5.54-.49-8.28-.61-2.41-.46-5-2-7.24-.56-.83-1.61-1.86-1.48-2.83"/><path class="cls-4" d="M174.91,132.71a54.7,54.7,0,0,1-34.39,6.59"/><path class="cls-4" d="M212.63,132.9a54.86,54.86,0,0,0,34.21,7.51"/><path class="cls-8" d="M83.29,129.2A33.25,33.25,0,0,1,50,96,33.25,33.25,0,0,1,16.79,129.2h0A33.25,33.25,0,0,1,50,162.45,33.25,33.25,0,0,1,83.29,129.2Z"/><path class="cls-8" d="M101.29,174.79a21.94,21.94,0,0,1-22-21.94A21.94,21.94,0,0,1,57.4,174.79h0a21.94,21.94,0,0,1,21.94,22,22,22,0,0,1,22-22Z"/></g></g></svg>