<svg xmlns="http://www.w3.org/2000/svg" width="391.1" height="68.96" viewBox="0 0 391.1 68.96">
  <defs>
    <style>
      .cls-1 {
        fill: #b59924;
      }

      .cls-2 {
        fill: #ffce00;
      }
    </style>
  </defs>
  <title>clear--text</title>
  <g id="レイヤー_2" data-name="レイヤー 2">
    <g id="一枚絵2">
      <g>
        <g>
          <path class="cls-1" d="M25.56,47.86c1,1.22,3.17,1.8,6.26,1.8h4.11c3.17,0,5.33-.43,6.41-1.3a4.63,4.63,0,0,0,1.73-3.67c0-2,.43-3.6,1.36-4.46s2.38-1.44,4.54-1.44h7.34c2.24,0,3.82.5,4.61,1.44s1.3,2.44,1.3,4.46q0,13.83-6.26,19c-4.11,3.46-10.81,5.18-19.88,5.18H30.89c-9.22-.07-15.84-1.8-20-5.25S4.75,53.91,4.75,44.69V29.21c0-9.29,2-15.63,6.12-19.15s10.8-5.33,20-5.33h6.19c9.07,0,15.77,1.8,19.88,5.33s6.26,9.79,6.26,18.86c0,2.31-.43,3.82-1.3,4.68s-2.37,1.23-4.61,1.23H50c-2.16,0-3.6-.36-4.46-1.23s-1.37-2.37-1.44-4.68a4.19,4.19,0,0,0-1.66-3.53c-1.15-.86-3.31-1.29-6.48-1.36H31.82c-3.09.07-5.25.64-6.26,1.72-1.15,1.23-1.73,3.39-1.73,6.7v8.78C23.83,44.47,24.41,46.71,25.56,47.86Z"/>
          <path class="cls-1" d="M93.24,49.44h32.33c2.23,0,3.82.44,4.75,1.37s1.3,2.52,1.3,4.75v7.13c0,2.16-.43,3.82-1.3,4.76s-2.52,1.36-4.75,1.36H79.2c-2.31,0-3.82-.5-4.75-1.36s-1.3-2.6-1.3-4.76V10.85c0-2.23.43-3.75,1.37-4.68S77,4.87,79.2,4.8h7.2c2.59-.07,4.39.36,5.33,1.3s1.44,2.52,1.51,4.75Z"/>
          <path class="cls-1" d="M142.92,67.52c-.94-.94-1.37-2.52-1.37-4.76V10.92c0-2.16.36-3.74,1.29-4.68s2.45-1.44,4.76-1.44H194c2.23,0,3.82.5,4.75,1.44s1.3,2.52,1.3,4.68v4.82c0,2.16-.43,3.82-1.3,4.68s-2.52,1.45-4.75,1.45H161.64v6.62H194c2.23,0,3.82.43,4.75,1.37s1.3,2.52,1.3,4.75v4.75c0,2.16-.43,3.82-1.3,4.68s-2.52,1.44-4.75,1.44H161.64v6.34H194c2.23,0,3.82.5,4.75,1.37s1.3,2.59,1.3,4.75v4.75c0,2.16-.43,3.82-1.3,4.76s-2.52,1.36-4.75,1.36H147.6C145.37,68.74,143.85,68.31,142.92,67.52Z"/>
          <path class="cls-1" d="M248.83,5.81a12.73,12.73,0,0,1,2.45,4.82L268.13,59a21.88,21.88,0,0,1,1.29,4.39,5.45,5.45,0,0,1-1.29,4.25,7.8,7.8,0,0,1-4.68,1.3h-5.4c-2.23.07-3.82-.36-4.75-1.23A9.74,9.74,0,0,1,251,63.41l-1.87-5.25h-20l-1.8,5.25a10.48,10.48,0,0,1-2.3,4.32c-.94.87-2.59,1.3-4.75,1.23h-5.4c-2.16-.08-3.75-.51-4.68-1.3a5.77,5.77,0,0,1-1.3-4.25A28.94,28.94,0,0,1,210.16,59l16.92-48.39a11.09,11.09,0,0,1,2.53-4.82c.93-.94,2.66-1.3,5.25-1.23h8.57C246.09,4.51,247.82,4.87,248.83,5.81ZM235.08,41.09h8.13l-4-11.66Z"/>
          <path class="cls-1" d="M297.64,49a2,2,0,0,0-.36.94V63.41a5.76,5.76,0,0,1-1.22,4.25,8,8,0,0,1-4.75,1.3h-6.84c-2.23.07-3.82-.36-4.76-1.23a6,6,0,0,1-1.51-4.32V11.86c0-2.31.51-4.11,1.73-5.26s3-1.8,5.55-1.8h22.6c10.45,0,17.86,1.87,22.11,5.62s6.48,9.21,6.48,16.27S334.51,39.22,330.19,43a15.62,15.62,0,0,1-3.53,2.31L335,58.73a7.9,7.9,0,0,1,1.65,4.68,5.8,5.8,0,0,1-1.22,4.25A8,8,0,0,1,330.7,69h-6.05c-2.16.07-3.82-.36-4.68-1.23a23.26,23.26,0,0,1-3.53-4.46l-9.07-14.69h-8.65A1.27,1.27,0,0,0,297.64,49Zm16.85-26.14c-1.22-.65-3.24-1-6.12-1h-9.65a1.14,1.14,0,0,0-1.08.5,1.75,1.75,0,0,0-.36.93v6.85a1.54,1.54,0,0,0,.36.93,1.15,1.15,0,0,0,1.08.51h9.65c2.88,0,4.9-.36,6.12-1.16a3.89,3.89,0,0,0,1.95-3.74A4,4,0,0,0,314.49,22.87Z"/>
          <path class="cls-1" d="M347.18,18.41a29.66,29.66,0,0,1-.36-5.19c0-3,.72-5.18,2.37-6.48a10.66,10.66,0,0,1,6.2-2.23,11.1,11.1,0,0,1,6.26,2.16c1.51,1.23,2.31,3.46,2.31,6.55a29.44,29.44,0,0,1-.44,5.19l-3.81,31.11h-8.43Zm2.16,35.5a8.22,8.22,0,0,1,6.05-2.45,8.66,8.66,0,0,1,6.12,14.69,8.52,8.52,0,0,1-6.12,2.45,8,8,0,0,1-6.05-2.45A8.16,8.16,0,0,1,346.82,60,8.25,8.25,0,0,1,349.34,53.91Z"/>
          <path class="cls-1" d="M374.32,18.41a29.66,29.66,0,0,1-.36-5.19c0-3,.72-5.18,2.38-6.48a10.6,10.6,0,0,1,6.19-2.23,11.1,11.1,0,0,1,6.26,2.16c1.52,1.23,2.31,3.46,2.31,6.55a29.46,29.46,0,0,1-.43,5.19l-3.82,31.11h-8.42Zm2.16,35.5a8.24,8.24,0,0,1,6-2.45A8.37,8.37,0,0,1,391.1,60a8.65,8.65,0,0,1-2.45,6.12,8.5,8.5,0,0,1-6.12,2.45,8,8,0,0,1-6-2.45A8.16,8.16,0,0,1,374,60,8.25,8.25,0,0,1,376.48,53.91Z"/>
        </g>
        <g>
          <path class="cls-2" d="M20.81,43.35c1,1.22,3.17,1.8,6.26,1.8h4.11c3.17,0,5.33-.43,6.41-1.3a4.64,4.64,0,0,0,1.73-3.67c0-2,.43-3.6,1.36-4.47s2.38-1.44,4.54-1.44h7.34c2.24,0,3.82.51,4.61,1.44s1.3,2.45,1.3,4.47q0,13.83-6.26,19c-4.11,3.46-10.81,5.18-19.88,5.18H26.14c-9.22-.07-15.84-1.8-20-5.25S0,49.4,0,40.18V24.7C0,15.41,2,9.07,6.12,5.54S16.92.22,26.14.22h6.19C41.4.22,48.1,2,52.21,5.54s6.26,9.8,6.26,18.87c0,2.3-.43,3.82-1.3,4.68s-2.37,1.22-4.61,1.22H45.22c-2.16,0-3.6-.36-4.46-1.22s-1.37-2.38-1.44-4.68a4.19,4.19,0,0,0-1.66-3.53c-1.15-.86-3.31-1.3-6.48-1.37H27.07c-3.09.07-5.25.65-6.26,1.73-1.15,1.23-1.73,3.39-1.73,6.7v8.78C19.08,40,19.66,42.2,20.81,43.35Z"/>
          <path class="cls-2" d="M88.49,44.93h32.33c2.23,0,3.82.43,4.75,1.37s1.3,2.52,1.3,4.75v7.13c0,2.16-.43,3.82-1.3,4.75s-2.52,1.37-4.75,1.37H74.45c-2.31,0-3.82-.5-4.75-1.37s-1.3-2.59-1.3-4.75V6.34c0-2.24.43-3.75,1.37-4.68S72.22.36,74.45.29h7.2C84.24.22,86,.65,87,1.58s1.44,2.52,1.51,4.76Z"/>
          <path class="cls-2" d="M138.17,63c-.94-.93-1.37-2.51-1.37-4.75V6.41c0-2.16.36-3.75,1.29-4.68S140.54.29,142.85.29h46.37c2.23,0,3.82.5,4.75,1.44s1.3,2.52,1.3,4.68v4.82c0,2.16-.43,3.82-1.3,4.68s-2.52,1.44-4.75,1.44H156.89V24h32.33c2.23,0,3.82.43,4.75,1.37s1.3,2.52,1.3,4.75v4.75c0,2.16-.43,3.82-1.3,4.68S191.45,41,189.22,41H156.89v6.34h32.33c2.23,0,3.82.5,4.75,1.37s1.3,2.59,1.3,4.75v4.75c0,2.16-.43,3.82-1.3,4.75s-2.52,1.37-4.75,1.37H142.85C140.62,64.23,139.1,63.8,138.17,63Z"/>
          <path class="cls-2" d="M244.08,1.3a12.73,12.73,0,0,1,2.45,4.82l16.85,48.39a21.7,21.7,0,0,1,1.29,4.39,5.46,5.46,0,0,1-1.29,4.25,7.8,7.8,0,0,1-4.68,1.3h-5.4c-2.23.07-3.82-.37-4.75-1.23a9.79,9.79,0,0,1-2.31-4.32l-1.87-5.26h-20l-1.8,5.26a10.55,10.55,0,0,1-2.3,4.32c-.94.86-2.59,1.3-4.75,1.23h-5.4c-2.16-.08-3.75-.51-4.68-1.3a5.79,5.79,0,0,1-1.3-4.25,28.63,28.63,0,0,1,1.22-4.39L222.33,6.12a11.09,11.09,0,0,1,2.53-4.82c.93-.94,2.66-1.3,5.25-1.23h8.57C241.34,0,243.07.36,244.08,1.3ZM230.33,36.58h8.13l-4-11.67Z"/>
          <path class="cls-2" d="M292.89,44.5a2,2,0,0,0-.36.94V58.9a5.77,5.77,0,0,1-1.22,4.25,8,8,0,0,1-4.75,1.3h-6.84c-2.23.07-3.82-.37-4.76-1.23a6,6,0,0,1-1.51-4.32V7.34c0-2.3.51-4.1,1.73-5.25s3-1.8,5.55-1.8h22.6c10.45,0,17.86,1.87,22.11,5.61s6.48,9.22,6.48,16.28-2.16,12.53-6.48,16.27a15.26,15.26,0,0,1-3.53,2.3l8.36,13.47a7.9,7.9,0,0,1,1.65,4.68,5.82,5.82,0,0,1-1.22,4.25,8,8,0,0,1-4.75,1.3H319.9c-2.16.07-3.82-.37-4.68-1.23a23.58,23.58,0,0,1-3.53-4.46l-9.07-14.69H294A1.27,1.27,0,0,0,292.89,44.5Zm16.85-26.14c-1.22-.65-3.24-1-6.12-1H294a1.15,1.15,0,0,0-1.08.51,1.72,1.72,0,0,0-.36.93v6.84a1.57,1.57,0,0,0,.36.94,1.14,1.14,0,0,0,1.08.5h9.65c2.88,0,4.9-.36,6.12-1.15a3.89,3.89,0,0,0,1.95-3.74A4,4,0,0,0,309.74,18.36Z"/>
          <path class="cls-2" d="M342.43,13.9a29.73,29.73,0,0,1-.36-5.19c0-3,.72-5.18,2.37-6.48A10.59,10.59,0,0,1,350.64,0a11,11,0,0,1,6.26,2.16c1.51,1.22,2.31,3.46,2.31,6.55a29.52,29.52,0,0,1-.44,5.19L355,45h-8.43Zm2.16,35.5A8.22,8.22,0,0,1,350.64,47a8.66,8.66,0,0,1,6.12,14.69,8.51,8.51,0,0,1-6.12,2.44,8,8,0,0,1-6.05-2.44,8.69,8.69,0,0,1,0-12.24Z"/>
          <path class="cls-2" d="M369.57,13.9a29.73,29.73,0,0,1-.36-5.19c0-3,.72-5.18,2.38-6.48A10.53,10.53,0,0,1,377.78,0,11,11,0,0,1,384,2.16c1.52,1.22,2.31,3.46,2.31,6.55a29.55,29.55,0,0,1-.43,5.19L382.1,45h-8.42Zm2.16,35.5a8.24,8.24,0,0,1,6-2.45,8.37,8.37,0,0,1,8.57,8.57,8.65,8.65,0,0,1-2.45,6.12,8.49,8.49,0,0,1-6.12,2.44,8,8,0,0,1-6-2.44,8.69,8.69,0,0,1,0-12.24Z"/>
        </g>
      </g>
    </g>
  </g>
</svg>
