<svg xmlns="http://www.w3.org/2000/svg" width="1065.89" height="150.45" viewBox="0 0 1065.89 150.45">
  <defs>
    <style>
      .cls-1 {
        fill: #0af;
      }

      .cls-2 {
        fill: #ff4d5e;
      }
    </style>
  </defs>
  <title>logo</title>
  <g id="レイヤー_2" data-name="レイヤー 2">
    <g id="レイヤー_1-2" data-name="レイヤー 1">
      <g>
        <g>
          <polygon class="cls-1" points="989.97 114.8 1025.61 150.45 1037.82 138.24 1004.71 105.13 1014.2 98.7 989.97 114.8"/>
          <polygon class="cls-1" points="1053.68 122.37 1065.89 110.16 1038.37 82.64 1023.7 92.39 1053.68 122.37"/>
          <polygon class="cls-1" points="955.73 0 943.52 12.21 985.63 54.32 985.59 54.35 1000.29 44.56 955.73 0"/>
          <polygon class="cls-1" points="927.65 28.08 915.45 40.28 951.91 76.75 904.31 108.49 966.58 67.01 927.65 28.08"/>
          <polygon class="cls-2" points="1023.7 92.39 1038.37 82.64 1038.37 82.64 1000.29 44.56 985.59 54.35 966.58 67.01 904.31 108.49 942.3 146.48 989.97 114.8 1014.2 98.7 1023.7 92.39"/>
        </g>
        <polygon class="cls-2" points="17.26 28.77 70.99 28.55 53.73 141.84 0 141.84 17.26 28.77"/>
        <polygon class="cls-1" points="156.01 141.84 102.28 141.84 85.67 32.87 139.4 32.87 156.01 141.84"/>
        <polygon class="cls-2" points="300.8 37.83 355.82 38.05 335.54 141.84 281.81 141.84 298.86 55.09 300.8 37.83"/>
        <polyline class="cls-1" points="298.86 55.05 246.42 55.05 246.42 102.09 192.69 102.09 192.69 38.01 247.07 37.79 247.07 24.84 300.8 24.84 300.8 37.79"/>
        <g>
          <polygon class="cls-1" points="392.5 82.93 392.5 100.41 444.29 100.41 442.78 82.93 392.5 82.93"/>
          <polygon class="cls-1" points="392.5 43.22 392.5 60.49 440.62 60.49 439.11 43.22 392.5 43.22"/>
          <polygon class="cls-1" points="546.57 43.22 492.84 43.22 494.35 60.49 546.57 60.49 546.57 43.22"/>
          <polygon class="cls-1" points="546.57 100.41 546.57 82.93 496.51 82.93 498.02 100.41 546.57 100.41"/>
          <polygon class="cls-2" points="491.11 22.73 437.38 22.73 439.11 43.22 440.62 60.49 442.78 82.93 444.29 100.41 447.96 141.84 501.69 141.84 498.02 100.41 496.51 82.93 494.35 60.49 492.84 43.22 491.11 22.73"/>
        </g>
        <polygon class="cls-1" points="583.25 63.72 583.25 76.89 597.71 76.89 594.9 63.72 583.25 63.72"/>
        <polygon class="cls-1" points="635.25 63.72 637.84 76.89 661.8 76.89 653.6 118.75 693.95 118.75 704.52 63.72 635.25 63.72"/>
        <polygon class="cls-2" points="633.96 57.03 593.61 57.03 594.9 63.72 597.71 76.89 610.66 141.84 651.01 141.84 637.84 76.89 635.25 63.72 633.96 57.03"/>
        <rect class="cls-1" x="741.2" y="57.03" width="19.2" height="54.16"/>
        <rect class="cls-1" x="769.47" y="57.03" width="19.21" height="54.16"/>
        <polygon class="cls-2" points="856.86 60.49 826.43 141.84 786.08 141.84 816.72 60.49 856.86 60.49"/>
      </g>
    </g>
  </g>
</svg>
