<svg xmlns="http://www.w3.org/2000/svg" width="191.61" height="211.01" viewBox="0 0 191.61 211.01">
  <defs>
    <style>
      .cls-1 {
        fill: #1c8c42;
        stroke: #006837;
        stroke-width: 0.25px;
      }

      .cls-1, .cls-4, .cls-5 {
        stroke-miterlimit: 10;
      }

      .cls-2 {
        fill: #d2ffe0;
      }

      .cls-3, .cls-4, .cls-5 {
        fill: #db8f2a;
      }

      .cls-4 {
        stroke: #f7c384;
      }

      .cls-5 {
        stroke: #874f12;
        stroke-width: 0.75px;
      }

      .cls-6 {
        fill: #f7c384;
      }
    </style>
  </defs>
  <title>stage--cleared-flag</title>
  <g id="レイヤー_2" data-name="レイヤー 2">
    <g id="レイヤー_2-2" data-name="レイヤー 2">
      <g>
        <polygon class="cls-1" points="28.8 116.75 0.18 193.47 27.17 192.03 46.62 210.79 75.23 134.07 28.8 116.75"/>
        <polygon class="cls-1" points="162.81 116.75 191.42 193.47 164.44 192.03 144.99 210.79 116.37 134.07 162.81 116.75"/>
        <rect class="cls-2" x="23.01" y="103.78" width="3.2" height="81.33" transform="translate(51.82 0.47) rotate(20.37)"/>
        <rect class="cls-2" x="162.44" y="103.78" width="3.2" height="81.33" transform="translate(368.1 222.75) rotate(159.63)"/>
        <g>
          <circle class="cls-3" cx="92.58" cy="89.08" r="89.08"/>
          <ellipse class="cls-4" cx="92.58" cy="89.08" rx="84.92" ry="84.98"/>
          <ellipse class="cls-5" cx="92.58" cy="89.08" rx="82.42" ry="82.45"/>
          <g>
            <path class="cls-6" d="M19.25,94.64s2.58,1.18,8.27,1.55,15.29,4.23,14.68,6.54,3.07,3,3.07,3a34.65,34.65,0,0,0-6.44-1.2c-3.76-.35-15.37-3.9-18.18-7.88S19.25,94.64,19.25,94.64Z"/>
            <path class="cls-6" d="M51,82.19s-.75,2.38,0,7.13-1.51,13.47-4.09,13.46-2.6,3.17-2.6,3.17a22.42,22.42,0,0,0,0-5.55c-.36-3.17,1.14-13.46,4.85-16.63Z"/>
            <path class="cls-6" d="M13.84,86.11s2.59,1.17,8.28,1.54,15.29,4.23,14.68,6.54,3.07,3,3.07,3A33.68,33.68,0,0,0,33.43,96c-3.76-.36-15.37-3.9-18.18-7.89S13.84,86.11,13.84,86.11Z"/>
            <path class="cls-6" d="M45.54,73.66s-.74,2.37,0,7.13S44,94.25,41.43,94.25s-2.59,3.16-2.59,3.16a22.92,22.92,0,0,0,0-5.54C38.49,88.7,40,78.4,43.69,75.24Z"/>
            <path class="cls-6" d="M29.94,112.5s2.59,1.17,8.28,1.54,15.28,4.24,14.68,6.54,3.07,3,3.07,3a34.88,34.88,0,0,0-6.44-1.2c-3.77-.35-15.37-3.9-18.18-7.89S29.94,112.5,29.94,112.5Z"/>
            <path class="cls-6" d="M61.64,100.05s-.74,2.38,0,7.13-1.5,13.47-4.09,13.46-2.6,3.17-2.6,3.17a22.68,22.68,0,0,0,0-5.55c-.36-3.17,1.14-13.47,4.84-16.63Z"/>
            <path class="cls-6" d="M36.76,124s2.77.82,8.46.42,15.89,2.14,15.73,4.5,3.59,2.55,3.59,2.55a34.81,34.81,0,0,0-6.58-.33c-3.78.15-15.91-1.8-19.44-5.36Z"/>
            <path class="cls-6" d="M40.6,136.37a26,26,0,0,0,8.17-1.91c5.23-1.93,15.85-2.32,16.61,0s4.38,1.43,4.38,1.43a33.8,33.8,0,0,0-6.35,1.49c-3.52,1.18-15.74,2.64-20.45.24Z"/>
            <path class="cls-6" d="M66.74,158.06a26,26,0,0,1,8.21-1.7c5.55-.45,15.35-4.58,15.08-7s3.37-3.15,3.37-3.15A34.25,34.25,0,0,1,87,147.58c-3.69.41-15.4,4.24-18.66,8.4S66.74,158.06,66.74,158.06Z"/>
            <path class="cls-6" d="M65.71,107.49s-.29,2.44,1.33,7,1,13.49-1.51,13.83-2,3.48-2,3.48a23,23,0,0,0-1-5.48c-1-3.08-1.41-13.45,1.65-17.07S65.71,107.49,65.71,107.49Z"/>
            <path class="cls-6" d="M73.84,121.9s-.49,1.39.73,3.86-.09,7.49-2.66,7.83-2.25,2.06-2.25,2.06a7,7,0,0,0-.57-3c-.69-1.67-.27-7.44,3.08-9.65Z"/>
            <path class="cls-6" d="M24.54,104s2.58,1.17,8.27,1.54,15.29,4.23,14.68,6.54,3.07,3,3.07,3a34.21,34.21,0,0,0-6.44-1.19c-3.76-.36-15.37-3.91-18.18-7.89Z"/>
            <path class="cls-6" d="M56.24,91.51s-.75,2.38,0,7.13-1.51,13.47-4.09,13.47-2.6,3.16-2.6,3.16a22.42,22.42,0,0,0,0-5.55c-.36-3.16,1.14-13.46,4.85-16.62Z"/>
          </g>
          <g>
            <path class="cls-6" d="M165.94,94.64s-2.57,1.18-8.23,1.55-15.22,4.23-14.61,6.54-3.06,3-3.06,3a34.41,34.41,0,0,1,6.41-1.2c3.75-.35,15.3-3.9,18.1-7.88S165.94,94.64,165.94,94.64Z"/>
            <path class="cls-6" d="M134.4,82.19s.74,2.38,0,7.13,1.5,13.47,4.08,13.46,2.58,3.17,2.58,3.17a23,23,0,0,1,0-5.55c.36-3.17-1.14-13.46-4.82-16.63Z"/>
            <path class="cls-6" d="M171.32,86.11s-2.57,1.17-8.24,1.54-15.21,4.23-14.6,6.54-3.06,3-3.06,3a33.44,33.44,0,0,1,6.41-1.2c3.75-.36,15.3-3.9,18.09-7.89Z"/>
            <path class="cls-6" d="M139.77,73.66s.74,2.37,0,7.13,1.5,13.46,4.08,13.46,2.58,3.16,2.58,3.16a22.58,22.58,0,0,1,0-5.54c.36-3.17-1.13-13.47-4.81-16.63Z"/>
            <path class="cls-6" d="M155.3,112.5s-2.57,1.17-8.24,1.54-15.21,4.24-14.6,6.54-3.06,3-3.06,3a34.41,34.41,0,0,1,6.41-1.2c3.74-.35,15.3-3.9,18.09-7.89Z"/>
            <path class="cls-6" d="M123.75,100.05s.74,2.38,0,7.13,1.5,13.47,4.07,13.46,2.59,3.17,2.59,3.17a22.68,22.68,0,0,1,0-5.55c.36-3.17-1.13-13.47-4.82-16.63Z"/>
            <path class="cls-6" d="M148.52,124s-2.76.82-8.43.42-15.81,2.14-15.65,4.5-3.58,2.55-3.58,2.55a34.62,34.62,0,0,1,6.55-.33c3.77.15,15.84-1.8,19.35-5.36S148.52,124,148.52,124Z"/>
            <path class="cls-6" d="M144.69,136.37a25.75,25.75,0,0,1-8.13-1.91c-5.2-1.93-15.78-2.32-16.53,0s-4.36,1.43-4.36,1.43a33.63,33.63,0,0,1,6.32,1.49c3.5,1.18,15.67,2.64,20.36.24Z"/>
            <path class="cls-6" d="M118.39,158.43a26.14,26.14,0,0,0-8.13-1.94c-5.51-.61-15.14-5-14.79-7.38s-3.25-3.24-3.25-3.24a33.3,33.3,0,0,0,6.31,1.51c3.66.52,15.19,4.67,18.3,8.92S118.39,158.43,118.39,158.43Z"/>
            <path class="cls-6" d="M119.71,107.49s.28,2.44-1.33,7-1,13.49,1.5,13.83,2,3.48,2,3.48a23.24,23.24,0,0,1,1-5.48c1-3.08,1.41-13.45-1.63-17.07Z"/>
            <path class="cls-6" d="M111.61,121.9s.49,1.39-.73,3.86.1,7.49,2.66,7.83,2.23,2.06,2.23,2.06a7,7,0,0,1,.57-3c.69-1.67.27-7.44-3.06-9.65Z"/>
            <path class="cls-6" d="M160.68,104s-2.57,1.17-8.24,1.54-15.21,4.23-14.61,6.54-3.05,3-3.05,3a34,34,0,0,1,6.41-1.19c3.74-.36,15.3-3.91,18.09-7.89S160.68,104,160.68,104Z"/>
            <path class="cls-6" d="M129.13,91.51s.74,2.38,0,7.13,1.5,13.47,4.07,13.47,2.58,3.16,2.58,3.16a23,23,0,0,1,0-5.55c.36-3.16-1.13-13.46-4.82-16.62Z"/>
          </g>
          <path class="cls-6" d="M159.56,65.82s-1.15,2.83-5.22,7.23-8.67,14.53-6.6,16-.25,4.71-.25,4.71a36.55,36.55,0,0,1,4.06-5.62c2.62-3,9-14.32,8.33-19.67Z"/>
          <path class="cls-6" d="M26,64.15s1.15,2.84,5.22,7.24,8.68,14.52,6.61,16,.24,4.71.24,4.71a35.5,35.5,0,0,0-4.06-5.63c-2.61-3-9-14.31-8.33-19.66Z"/>
        </g>
      </g>
    </g>
  </g>
</svg>
