<svg xmlns="http://www.w3.org/2000/svg" viewBox="0 0 265.77 44.71"><defs><style>.cls-1{fill:#ff4d5e;stroke:#ff4d5e;stroke-miterlimit:10;stroke-width:2px;}</style></defs><title>アセット 26</title><g id="レイヤー_2" data-name="レイヤー 2"><g id="レイヤー_1-2" data-name="レイヤー 1"><path class="cls-1" d="M23.44,6.92H15.35v27.3H9.05V6.92H1V1.47H23.44Z"/><path class="cls-1" d="M46.66,28.6A35.33,35.33,0,0,0,47,34.22H41.33L41,31.75h-.13a7.61,7.61,0,0,1-6.3,2.94,6.89,6.89,0,0,1-7.11-7.12c0-6.09,5.41-8.94,12.94-8.94,0-2.34-.81-4.13-4.26-4.13a11.51,11.51,0,0,0-5.83,1.62L29.07,12a16.63,16.63,0,0,1,8.22-2c7.37,0,9.37,4.68,9.37,9.88Zm-6.14-5.92c-3.4,0-6.94.81-6.94,4.26a2.89,2.89,0,0,0,3,3.23,3.94,3.94,0,0,0,4-4.09Z"/><path class="cls-1" d="M60.12,13.73a7.92,7.92,0,0,1,7-3.74c5.2,0,9,4.85,9,12.13,0,8.73-4.94,12.57-9.75,12.57a6.57,6.57,0,0,1-5.62-2.77h-.09V43.71h-6.3V18.25c0-3.07-.08-5.58-.17-7.75h5.49l.3,3.23Zm.59,10.91c0,3.44,2.09,5.11,4.22,5.11,3.19,0,4.85-3.16,4.85-7.41s-1.61-7.29-4.72-7.29c-2.43,0-4.35,2.3-4.35,5.16Z"/><path class="cls-1" d="M95.08,6.15l6.22-1.83V10.5h5.24v4.64H101.3v10.3c0,2.86.9,4,2.81,4a9,9,0,0,0,2-.21l.08,4.81a12.69,12.69,0,0,1-4.21.55c-6.82,0-7-5.92-7-8.56V15.14H92V10.5h3.1Z"/><path class="cls-1" d="M133.29,22.17c0,9-5.79,12.52-11.07,12.52-6.39,0-11-4.52-11-12.23,0-8,4.81-12.47,11.24-12.47C129.12,10,133.29,15,133.29,22.17Zm-10.95-7.54c-3.49,0-4.72,4.09-4.72,7.71,0,4.21,1.62,7.7,4.68,7.7s4.6-3.53,4.6-7.75C126.9,18.59,125.58,14.63,122.34,14.63Z"/><path class="cls-1" d="M167.62,7.64a12.7,12.7,0,0,0-5.84-1.4C158.46,6.24,157,8,157,9.86c0,2.34,1.62,3.4,5.62,5.24,5.24,2.34,7.58,5.36,7.58,9.66,0,5.71-4.3,9.88-11.92,9.88a17.48,17.48,0,0,1-8.05-1.83l1.23-5.28a14.73,14.73,0,0,0,7.07,1.83c3.5,0,5.33-1.66,5.33-4.09s-1.58-3.74-5.2-5.32c-4.94-2.13-8-5.19-8-9.45,0-5.37,4.21-9.5,11.28-9.5a15.84,15.84,0,0,1,7,1.49Z"/><path class="cls-1" d="M177.8,6.15,184,4.32V10.5h5.23v4.64H184v10.3c0,2.86.89,4,2.81,4a9,9,0,0,0,2-.21l.09,4.81a12.76,12.76,0,0,1-4.22.55c-6.81,0-6.94-5.92-6.94-8.56V15.14h-3.11V10.5h3.11Z"/><path class="cls-1" d="M213,28.6a36.55,36.55,0,0,0,.34,5.62H207.7l-.38-2.47h-.13a7.65,7.65,0,0,1-6.31,2.94,6.89,6.89,0,0,1-7.11-7.12c0-6.09,5.41-8.94,12.95-8.94,0-2.34-.81-4.13-4.26-4.13a11.51,11.51,0,0,0-5.83,1.62L195.43,12a16.7,16.7,0,0,1,8.22-2C211,10,213,14.71,213,19.91Zm-6.13-5.92c-3.41,0-6.94.81-6.94,4.26a2.88,2.88,0,0,0,3,3.23,3.94,3.94,0,0,0,4-4.09Z"/><path class="cls-1" d="M233.72,16.12A8.49,8.49,0,0,0,232.1,16c-2.85,0-5,1.92-5,6V34.22h-6.3V17.91c0-2.94-.09-5.28-.18-7.41H226l.26,4.13h.17A6.57,6.57,0,0,1,232.32,10a7,7,0,0,1,1.4.12Z"/><path class="cls-1" d="M240.37,6.15l6.21-1.83V10.5h5.24v4.64h-5.24v10.3c0,2.86.9,4,2.82,4a9,9,0,0,0,2-.21l.09,4.81a12.8,12.8,0,0,1-4.22.55c-6.81,0-6.94-5.92-6.94-8.56V15.14h-3.11V10.5h3.11Z"/><path class="cls-1" d="M257.28,30.81a3.75,3.75,0,1,1,7.49,0,3.75,3.75,0,1,1-7.49,0Zm6.22-6.94h-4.94l-.86-22.4h6.65Z"/></g></g></svg>