<svg xmlns="http://www.w3.org/2000/svg" width="393.64" height="71.45" viewBox="0 0 393.64 71.45">
  <defs>
    <style>
      .cls-1 {
        fill: #ff4d5e;
      }
    </style>
  </defs>
  <title>title--attention-text</title>
  <g id="レイヤー_2" data-name="レイヤー 2">
    <g id="レイヤー_1-2" data-name="レイヤー 1">
      <g>
        <polygon class="cls-1" points="0 10.96 13.23 10.96 13.23 55.84 25.59 55.84 25.59 10.96 38.9 10.96 38.9 0 0 0 0 10.96"/>
        <path class="cls-1" d="M77,45.59V31.31C77,20,71.37,14.07,60.64,14.07a28.15,28.15,0,0,0-14,3.43l-.67.4,2.55,8.72,1.11-.68a18.09,18.09,0,0,1,9.07-2.52c4.49,0,5.76,1.89,6,4.8-13.33.29-21.25,6.11-21.25,15.7A12.28,12.28,0,0,0,56.09,56.61,13.91,13.91,0,0,0,66,52.85l.46,3H77.8l-.21-1.18A56.38,56.38,0,0,1,77,45.59ZM65,36.88v4.58a5.49,5.49,0,0,1-5.51,5.73c-1.17,0-3.9-.43-3.9-4.33S58.71,37.07,65,36.88Z"/>
        <path class="cls-1" d="M109.71,14a14,14,0,0,0-10.92,4.65l-.35-3.81h-11l0,1c.14,3.7.28,7.8.28,12.7V71.45h12.36V53.59a12.46,12.46,0,0,0,8.38,3c8.48,0,17-6.7,17-21.66C125.55,22.62,119,14,109.71,14Zm-3.43,10.33c5,0,6.77,5.67,6.77,11s-1.83,11.19-7,11.19c-2.95,0-5.93-2.29-5.93-7.41V31.8C100.14,27.68,102.9,24.33,106.28,24.33Z"/>
        <path class="cls-1" d="M166.85,4.35,154.63,8v6.89h-5.11v9.63h5.11v17c0,3.73,0,15.08,12.41,15.08a21.54,21.54,0,0,0,7.3-1l.64-.25-.17-9.8-1.18.23a13.87,13.87,0,0,1-3.16.34c-1.75,0-3.62-.44-3.62-5.66V24.47h8.61V14.84h-8.61Z"/>
        <path class="cls-1" d="M200.64,14c-11.84,0-19.48,8.45-19.48,21.51,0,12.82,7.48,21.1,19.06,21.1,9.56,0,19.2-6.68,19.2-21.59C219.42,22.45,211.87,14,200.64,14Zm-.21,9.63c4.48,0,6.49,5.83,6.49,11.6S204.89,47,200.36,47s-6.7-5.87-6.7-11.68C193.66,29.92,195.43,23.63,200.43,23.63Z"/>
        <path class="cls-1" d="M260.93,4.35,248.71,8v6.89h-5.12v9.63h5.12v17c0,3.73,0,15.08,12.41,15.08a21.54,21.54,0,0,0,7.3-1l.64-.25-.18-9.8-1.17.23a13.67,13.67,0,0,1-3.16.34c-1.76,0-3.62-.44-3.62-5.66V24.47h8.61V14.84h-8.61Z"/>
        <path class="cls-1" d="M308.6,45.59V31.31c0-11.28-5.67-17.24-16.4-17.24a28.2,28.2,0,0,0-14,3.43l-.66.4,2.54,8.72,1.12-.68a18,18,0,0,1,9.07-2.52c4.49,0,5.76,1.89,6,4.8-13.33.29-21.25,6.11-21.25,15.7a12.28,12.28,0,0,0,12.69,12.69,14,14,0,0,0,9.89-3.76l.46,3h11.36l-.21-1.18A56.62,56.62,0,0,1,308.6,45.59Zm-12.08-8.71v4.58A5.49,5.49,0,0,1,291,47.19c-1.18,0-3.9-.43-3.9-4.33S290.27,37.07,296.52,36.88Z"/>
        <path class="cls-1" d="M339.3,14a11.27,11.27,0,0,0-9.14,5.34l-.27-4.5H319l0,1c.15,3.53.28,7.38.28,12.14V55.84H331.7V34.67c0-5.59,2.64-8.8,7.26-8.8a13,13,0,0,1,2.48.2l1.18.21V14.39l-.81-.16A12.25,12.25,0,0,0,339.3,14Z"/>
        <path class="cls-1" d="M363.75,4.35,351.53,8v6.89h-5.11v9.63h5.11v17c0,3.73,0,15.08,12.41,15.08a21.64,21.64,0,0,0,7.31-1l.64-.25-.18-9.8-1.17.23a13.9,13.9,0,0,1-3.17.34c-1.75,0-3.62-.44-3.62-5.66V24.47h8.62V14.84h-8.62Z"/>
        <polygon class="cls-1" points="391.51 38.82 392.98 0 379.98 0 381.46 38.82 391.51 38.82"/>
        <path class="cls-1" d="M386.48,41.79c-4.15,0-7.16,3.13-7.16,7.45a7,7,0,0,0,7.16,7.37c4.22,0,7.16-3,7.16-7.37S390.63,41.79,386.48,41.79Z"/>
      </g>
    </g>
  </g>
</svg>
